<svg style="position: absolute; width: 0; height: 0;" width="0" height="0" version="1.1" xmlns="http://www.w3.org/2000/svg" xmlns:xlink="http://www.w3.org/1999/xlink">
<defs>
<symbol id="icon-icon_about" viewBox="0 0 1024 1024">
	<title>icon_about</title>
	<path fill="currentColor" class="path1 fill-color6" d="M512 990.968c-264.107 0-478.968-214.844-478.968-478.974 0-264.104 214.861-478.961 478.968-478.961s478.968 214.871 478.968 478.974c0 264.117-214.861 478.961-478.968 478.961v0zM512 73.048c-242.045 0-438.951 196.917-438.951 438.945 0 242.055 196.92 438.959 438.951 438.959s438.951-196.904 438.951-438.945c0-242.042-196.92-438.959-438.951-438.959v0z"></path>
	<path fill="currentColor" class="path2 fill-color6" d="M495.484 792.774c-18.247 0-33.032-14.9-33.032-33.288v-362.843c0-18.388 14.785-33.288 33.032-33.288s33.032 14.9 33.032 33.288v362.843c0 18.388-14.785 33.288-33.032 33.288v0z"></path>
	<path fill="currentColor" class="path3 fill-color6" d="M528.516 297.29c0 18.243-14.789 33.032-33.032 33.032s-33.032-14.789-33.032-33.032c0-18.243 14.789-33.032 33.032-33.032s33.032 14.789 33.032 33.032z"></path>
</symbol>
<symbol id="icon-icon_air" viewBox="0 0 892 1024">
	<title>icon_air</title>
	<path fill="#444444" class="path1" d="M625.229 537.226c-5.527-65.343-53.386-138.967-80.065-158.291-26.69-19.318-39.578-14.171-51.536 4.602-5.858 9.183-9.667 28.446-12.161 50.831-3.909-4.536-6.959-9.354-9.26-13.714v-115.795c0-10.675-8.654-19.324-19.324-19.324-10.675 0-19.329 8.649-19.329 19.324v113.961c-2.659 5.043-6.342 10.708-11.198 15.839-2.466-24.62-6.414-46.267-12.728-56.182-11.958-18.768-24.846-23.915-51.53-4.608-26.685 19.335-74.548 92.958-80.059 158.28-5.527 65.349-12.883 106.766-5.527 138.972 7.366 32.201 38.653 11.958 51.541 0 12.872-11.969 42.325 1.828 63.494-7.361 0 0 31.287-17.485 34.976-66.263l3.678-48.778c0 0 0.771-39.441-1.393-81.001 0.028-0.017 0.055-0.017 0.055-0.017 10.097-5.918 17.903-13.697 23.915-21.587 1.321 0.292 2.687 0.462 4.107 0.462 0.98 0 1.938-0.149 2.885-0.286 5.72 7.845 13.268 15.646 22.957 21.79-2.494 43.223-1.668 85.702-1.668 85.702s0 0 3.694 48.767c3.683 48.772 34.97 66.263 34.97 66.263 21.152 9.21 50.616-4.597 63.488 7.361 12.883 11.969 44.175 32.212 51.536 0 7.361-32.206 0-73.623-5.516-138.95z"></path>
	<path fill="#444444" class="path2" d="M772.079 210.19c-11.556-16.043-30.357-26.525-51.635-26.525-35.152 0-63.659 28.479-63.659 63.642 0 15.123 5.313 29.013 14.127 39.93l-0.556 0.573c60.174 60.157 93.492 140.222 93.492 225.385 0 175.544-142.727 318.271-318.277 318.271v-63.659l-127.306 127.312 127.306 127.306v-63.653c245.666 0 445.583-199.917 445.583-445.578 0-113.444-42.171-220.298-119.076-303.005z"></path>
	<path fill="#444444" class="path3" d="M572.884 131.265l-127.312-127.306v63.659c-245.661 0-445.572 199.911-445.572 445.578 0 119.23 46.487 231.242 131.022 315.524 10.603 7.856 24.626 11.594 38.807 11.594 35.152 0 63.659-28.507 63.659-63.648 0-14.286-4.779-27.439-12.712-38.059l0.022-0.017c-0.066-0.061-0.116-0.143-0.182-0.204-3.066-4.035-6.546-7.757-10.466-10.956-53.452-58.742-82.845-134.238-82.845-214.236 0-175.55 142.721-318.271 318.266-318.271v63.653l127.312-127.312z"></path>
</symbol>
<symbol id="icon-icon_bioenergy" viewBox="0 0 1032 1024">
	<title>icon_bioenergy</title>
	<path fill="rgb(255, 255, 255)" class="path1 fill-color9" d="M1022.955 860.672c0 81.879-65.454 148.259-146.186 148.259h-711.098c-80.732 0-146.178-66.38-146.178-148.259v-700.105c0-81.879 65.446-148.251 146.178-148.251h711.098c80.732 0 146.186 66.372 146.186 148.251v700.105z"></path>
	<path fill="rgb(10, 11, 9)" class="path2 fill-color1" d="M32.255 675.459h975.38v2.048h-975.38v-2.048z"></path>
	<path fill="rgb(10, 11, 9)" class="path3 fill-color1" d="M32.255 345.567h975.38v2.048h-975.38v-2.048z"></path>
	<path fill="rgb(10, 11, 9)" class="path4 fill-color1" d="M681.586 16.921h2.048v989.225h-2.048v-989.225z"></path>
	<path fill="rgb(10, 11, 9)" class="path5 fill-color1" d="M356.273 16.921h2.048v989.225h-2.048v-989.225z"></path>
	<path fill="rgb(10, 11, 9)" class="path6 fill-color1" d="M870.493 1022.12h-711.090c-87.384 0-158.474-72.016-158.474-160.547v-700.088c0-88.531 71.090-160.547 158.474-160.547h711.090c87.384 0 158.474 72.016 158.474 160.547v700.088c0 88.531-71.090 160.547-158.474 160.547v0zM159.403 25.514c-73.834 0-133.898 60.998-133.898 135.971v700.088c0 74.973 60.064 135.971 133.898 135.971h711.090c73.834 0 133.898-60.998 133.898-135.971v-700.088c0-74.973-60.064-135.971-133.898-135.971h-711.090z"></path>
	<path fill="rgb(255, 255, 255)" class="path7 fill-color9" d="M589.549 563.507c27.165 0 49.152 21.979 49.152 49.152 0 27.156-21.987 49.152-49.152 49.152-27.156 0-49.152-21.996-49.152-49.152 0-27.173 21.996-49.152 49.152-49.152z"></path>
	<path fill="rgb(255, 255, 255)" class="path8 fill-color9" d="M498.822 383.652c12.231 0 22.135 9.904 22.135 22.127 0 12.239-9.904 22.143-22.135 22.143s-22.135-9.904-22.135-22.143c0-12.222 9.904-22.127 22.135-22.127z"></path>
	<path fill="rgb(255, 255, 255)" class="path9 fill-color9" d="M455.421 433.377c17.113 0 30.949 13.91 30.949 30.949 0 17.113-13.836 30.949-30.949 30.949s-30.941-13.836-30.941-30.949c0-17.039 13.828-30.949 30.941-30.949z"></path>
	<path fill="rgb(255, 255, 255)" class="path10 fill-color9" d="M703.008 608.211c0 49.086-35.168 88.842-78.66 88.842h-203.145c-43.401 0-78.643-39.756-78.643-88.842v-209.060c0-49.070 35.242-88.834 78.643-88.834h203.145c43.491 0 78.66 39.764 78.66 88.834v209.060z"></path>
	<path fill="rgb(26, 25, 24)" class="path11 fill-color2" d="M703.008 608.211h-12.288c0.008 21.594-7.75 40.935-19.931 54.69-12.239 13.763-28.516 21.856-46.44 21.864h-203.145c-17.875-0.008-34.161-8.102-46.399-21.873-12.19-13.754-19.964-33.087-19.956-54.682v-209.060c-0.008-21.586 7.766-40.919 19.956-54.673 12.239-13.771 28.525-21.864 46.399-21.873h203.145c17.924 0.008 34.202 8.102 46.44 21.873 12.182 13.754 19.939 33.079 19.931 54.673v209.060h24.576v-209.060c-0.008-27.484-9.83-52.56-26.108-70.959-16.22-18.391-39.264-30.179-64.84-30.163h-203.145c-25.534-0.016-48.57 11.772-64.799 30.155-16.278 18.399-26.124 43.483-26.132 70.967v209.060c0.008 27.492 9.855 52.576 26.132 70.975 16.228 18.383 39.264 30.171 64.799 30.155h203.145c25.575 0.016 48.62-11.772 64.84-30.155 16.278-18.399 26.1-43.491 26.108-70.975h-12.288z"></path>
	<path fill="rgb(26, 25, 24)" class="path12 fill-color2" d="M486.371 464.327c0 17.113-13.836 30.949-30.949 30.949s-30.941-13.836-30.941-30.949c0-17.039 13.828-30.949 30.941-30.949s30.949 13.91 30.949 30.949z"></path>
	<path fill="rgb(26, 25, 24)" class="path13 fill-color2" d="M520.957 405.778c0 12.239-9.904 22.143-22.135 22.143s-22.135-9.904-22.135-22.143c0-12.222 9.904-22.127 22.135-22.127s22.135 9.904 22.135 22.127z"></path>
	<path fill="rgb(26, 25, 24)" class="path14 fill-color2" d="M638.701 612.659c0 27.156-21.987 49.152-49.152 49.152-27.156 0-49.152-21.996-49.152-49.152 0-27.173 21.996-49.152 49.152-49.152 27.165 0 49.152 21.979 49.152 49.152z"></path>
</symbol>
<symbol id="icon-icon_bioswale" viewBox="0 0 1040 1024">
	<title>icon_bioswale</title>
	<path fill="rgb(255, 255, 255)" class="path1 fill-color9" d="M1031.745 857.821c0 81.437-66.019 147.456-147.456 147.456h-717.292c-81.437 0-147.456-66.019-147.456-147.456v-696.32c0-81.437 66.019-147.456 147.456-147.456h717.292c81.437 0 147.456 66.019 147.456 147.456v696.32z"></path>
	<path fill="rgb(10, 11, 9)" class="path2 fill-color1" d="M32.427 673.608h983.876v2.048h-983.876v-2.048z"></path>
	<path fill="rgb(10, 11, 9)" class="path3 fill-color1" d="M32.427 345.494h983.876v2.048h-983.876v-2.048z"></path>
	<path fill="rgb(10, 11, 9)" class="path4 fill-color1" d="M687.41 18.633h2.048v983.884h-2.048v-983.884z"></path>
	<path fill="rgb(10, 11, 9)" class="path5 fill-color1" d="M359.263 18.633h2.048v983.884h-2.048v-983.884z"></path>
	<path fill="rgb(120, 188, 87)" class="path6 fill-color6" d="M771.411 674.632c0 135.725-110.035 245.76-245.76 245.76-135.733 0-245.76-110.035-245.76-245.76z"></path>
	<path fill="rgb(10, 11, 9)" class="path7 fill-color1" d="M877.956 1018.466h-717.283c-88.080 0-159.744-71.655-159.744-159.744v-696.32c0-88.080 71.664-159.744 159.744-159.744h717.283c88.080 0 159.744 71.664 159.744 159.744v696.32c0 88.089-71.664 159.744-159.744 159.744v0zM160.673 27.234c-74.539 0-135.168 60.637-135.168 135.168v696.32c0 74.531 60.629 135.168 135.168 135.168h717.283c74.531 0 135.168-60.637 135.168-135.168v-696.32c0-74.531-60.637-135.168-135.168-135.168h-717.283z"></path>
</symbol>
<symbol id="icon-icon_casestudy" viewBox="0 0 951 1024">
	<title>icon_casestudy</title>
	<path fill="#444444" class="path1" d="M80.473 13.115c-36.722 0-66.904 29.353-66.904 64.81v721.046c0 18.971 7.566 36.917 18.003 56.823 10.438 19.918 24.45 40.916 40.113 60.533 15.662 19.606 32.881 37.752 50.481 51.744 17.6 13.98 35.096 25.32 57.482 25.32h700.645c33.273 0 55.936-30.589 55.936-63.073v-765.626c0-16.242-4.867-31.369-14.197-43.411-9.319-12.042-24.277-21.299-41.577-21.41h-79.072v744.327c0 11.663-8.95 20.296-20.702 20.252l-552.719-1.715c1.465 0.201-2.445-1.359-7.9-5.826-6.159-5.035-13.736-12.242-21.037-20.252-5.686-6.249-7.116-11.14-11.845-17.89h496.852c36.722 0 66.881-29.353 66.881-64.81v-676.075c0-35.457-30.159-64.81-66.881-64.81l-603.558 0.045zM80.473 57.652h603.535c11.845 0 20.748 8.6 20.748 20.252v676.075c0 11.663-8.904 20.252-20.748 20.252h-567.782l7.75 28.027c6.516 23.594 23.067 44.893 40.389 63.852 8.638 9.48 17.473 17.968 25.858 24.83s14.405 12.387 26.734 15.595l2.906 0.735 560.643 1.738c36.814 0.011 66.974-29.353 66.974-64.81v-699.769h32.708c0.9 0 2.399 0.234 4.959 3.542s5.005 9.391 5.005 16.709v765.626c0 14.637-6.655 18.514-9.803 18.514h-700.645c-1.891 0-14.417-4.255-28.176-15.183s-29.26-26.991-43.273-44.536c-14.013-17.545-26.665-36.649-35.453-53.437s-13.044-32.116-13.044-36.705v-721.046c0-11.663 8.927-20.252 20.771-20.252l-0.058-0.011zM174.63 191.327v178.234h415.197v-178.234h-415.197zM220.763 235.886h322.931v89.117h-322.931v-89.117z"></path>
</symbol>
<symbol id="icon-icon_chart" viewBox="0 0 1331 1024">
	<title>icon_chart</title>
	<path fill="#444444" class="path1" d="M10.055 2.557h259.429v1014.647h-259.429v-1014.647z"></path>
	<path fill="#444444" class="path2" d="M356.254 425.697h259.429v591.506h-259.429v-591.506z"></path>
	<path fill="#444444" class="path3" d="M702.471 171.817h259.429v845.387h-259.429v-845.387z"></path>
	<path fill="#444444" class="path4" d="M1048.67 679.578h259.429v337.625h-259.429v-337.625z"></path>
</symbol>
<symbol id="icon-icon_data" viewBox="0 0 1024 1024">
	<title>icon_data</title>
	<path fill="rgb(74, 74, 74)" class="path1 fill-color3" d="M47.328 993.882c0 0-17.21-7.71-17.21-17.21v-929.345c0-9.5 7.699-17.21 17.21-17.21s17.21 7.71 17.21 17.21v912.134h912.134c9.5 0 17.21 7.71 17.21 17.21s-7.71 17.21-17.21 17.21h-929.345zM819.544 373.39c-31.368 85.809-64.848 177.379-84.306 230.592 10.888 12.185 17.703 28.075 17.703 45.699 0 38.011-30.818 68.84-68.84 68.84-38 0-68.794-30.795-68.84-68.783l-155.809-92.98c-7.664 5.358-16.338 9.374-25.861 11.255l-132.437 196.046c2.639 7.309 4.325 15.076 4.325 23.302 0 38.011-30.829 68.84-68.84 68.84s-68.84-30.829-68.84-68.84c0-38.011 30.829-68.84 68.84-68.84 3.706 0 7.263 0.528 10.796 1.090l119.163-176.38c-9.385-11.772-15.225-26.481-15.225-42.704 0-38.011 30.829-68.84 68.84-68.84 35.74 0 64.767 27.33 68.163 62.174l161.545 96.388c7.309-4.211 15.397-7.194 24.025-8.559 21.306-59.73 53.466-149.831 83.159-233.036-9.638-11.829-15.638-26.733-15.638-43.186 0-38.011 30.829-68.84 68.84-68.84 38.023 0 68.84 30.829 68.84 68.84 0 34.868-25.999 63.356-59.604 67.922v0zM236.639 752.941c-19.011 0-34.42 15.409-34.42 34.42 0 19 15.409 34.42 34.42 34.42s34.42-15.42 34.42-34.42c0-19.011-15.409-34.42-34.42-34.42v0zM420.213 466.106c-19.011 0-34.42 15.409-34.42 34.42 0 19 15.409 34.42 34.42 34.42s34.42-15.42 34.42-34.42c0-19.011-15.409-34.42-34.42-34.42v0zM684.101 615.261c-19 0-34.42 15.409-34.42 34.42 0 19 15.42 34.42 34.42 34.42s34.42-15.42 34.42-34.42c0-19.011-15.42-34.42-34.42-34.42v0zM810.308 271.059c-19 0-34.42 15.409-34.42 34.42 0 19 15.42 34.42 34.42 34.42s34.42-15.42 34.42-34.42c0-19.011-15.42-34.42-34.42-34.42v0z"></path>
</symbol>
<symbol id="icon-icon_design" viewBox="0 0 1024 1024">
	<title>icon_design</title>
	<path fill="#444444" class="path1" d="M1012.377 100.352c-15.36-48.62-48.035-78.476-97.905-89.42-2.474-0.545-4.854-1.423-7.288-2.141h-785.342c-24.257 5.333-47.17 13.445-66.241 30.255-23.22 20.467-37.516 45.761-42.396 76.361-0.332 2.128-1.29 4.149-1.968 6.197v780.926c1.809 7.022 3.431 14.123 5.466 21.105 16.025 54.791 64.406 90.365 123.439 90.444 123.838 0.106 247.675 0.027 371.499 0.027h370.409c73.941 0 120.513-38.513 134.224-110.964 0.199-1.011 1.011-1.902 1.543-2.833v-776.485c-1.822-7.82-3.032-15.825-5.439-23.472v0zM74.632 140.78c0.013-34.404 16.224-58.341 45.375-66.427 7.341-2.035 15.254-2.766 22.914-2.766 247.688-0.146 495.377-0.146 743.065-0.093 42.423 0 68.089 25.866 68.089 68.262 0.027 130.846 0.013 261.705 0.013 392.551v14.323c-64.060-65.363-125.633-128.213-188.31-192.166-104.116 105.871-207.859 211.343-310.777 315.99-43.846-42.343-86.92-83.928-130.607-126.112-82 75.178-164.704 150.993-249.045 228.299-0.332-5.679-0.718-9.15-0.718-12.62-0.027-206.436-0.053-412.832 0-619.241v0zM626.156 951.269c-160.675 0-321.35 0.013-482.011 0-44.258 0-68.488-24.895-69.964-68.861-0.572-17.115 4.774-28.18 17.541-39.431 74.965-65.975 149.092-132.881 223.511-199.467 2.726-2.434 5.519-4.774 7.461-6.45 104.754 104.82 209.095 209.228 314.009 314.208h-10.546zM954.062 884.523c-0.040 41.026-25.946 66.706-67.092 66.759-49.75 0.040-99.488 0.16-149.251-0.266-4.827-0.027-10.892-2.314-14.256-5.705-73.781-74.22-147.257-148.746-220.798-223.205-1.503-1.529-2.859-3.205-3.604-4.043 89.42-89.447 178.402-178.455 267.849-267.916 1.915 1.782 4.601 4.176 7.141 6.716 57.597 57.583 115.273 115.074 172.551 172.963 4.069 4.123 7.128 11.251 7.168 16.996 0.479 79.234 0.386 158.467 0.293 237.701v0z"></path>
	<path fill="#444444" class="path2" d="M262.756 385.596c69.619 0.106 126.138-56.107 126.112-125.433-0.013-68.914-56.107-125.221-124.994-125.5-69.765-0.279-126.324 55.575-126.524 124.941-0.213 69.672 55.748 125.899 125.407 125.992v0zM262.849 197.22c34.909-0.133 62.943 28.246 62.81 63.581-0.133 34.497-28.273 62.278-62.983 62.118-34.444-0.133-62.584-28.419-62.517-62.863 0.053-34.324 28.379-62.73 62.69-62.836v0z"></path>
</symbol>
<symbol id="icon-icon_diagram" viewBox="0 0 1418 1024">
	<title>icon_diagram</title>
	<path fill="#444444" class="path1" d="M987.99 503.438c0 174.145-85.867 327.71-216.2 417.949-15.333-4.749-29.133-11.082-44.467-18.998 131.867-80.74 220.8-229.555 220.8-398.951s-88.934-318.211-220.8-398.951c13.8-7.916 29.133-14.248 44.467-18.998 131.867 90.239 216.2 243.803 216.2 417.949v0zM501.923 967.298c-248.4 0-449.268-208.974-449.268-463.86s200.867-463.86 449.268-463.86c49.067 0 96.6 7.916 141.067 23.747 13.8-9.499 29.133-17.415 42.933-25.33-56.733-23.747-119.6-37.995-184-37.995-268.334 0-487.601 226.389-487.601 503.438s219.267 503.438 487.601 503.438c65.933 0 127.267-14.248 184-37.995-15.333-7.916-29.133-15.831-42.933-25.33-44.467 14.248-92 23.747-141.067 23.747v0zM925.124 452.778l-322.001 335.625c3.067 3.166 4.6 6.333 7.667 7.916l315.867-329.293c0-4.749 0-9.499-1.533-14.248v0zM917.457 408.45l-338.867 353.040c3.067 3.166 4.6 6.333 7.667 9.499l334.267-348.291c-1.533-4.749-1.533-9.499-3.067-14.248v0zM892.923 332.459l-354.201 367.288c1.533 3.166 3.067 7.916 6.133 11.082l352.667-367.288c-1.533-3.166-3.067-7.916-4.6-11.082v0zM906.723 368.871l-349.601 364.122c1.533 3.166 4.6 6.333 7.667 9.499l346.534-360.956c-1.533-4.749-3.067-7.916-4.6-12.665v0zM929.724 503.438v-3.166l-302.067 313.461c3.067 3.166 6.133 4.749 9.2 7.916l291.334-302.38c0-6.333 1.533-11.082 1.533-15.831v0zM912.857 620.59l-225.4 235.888c3.067 1.583 6.133 4.749 10.733 6.333l205.467-213.724c1.533-9.499 6.133-18.998 9.2-28.496v0zM925.124 555.682l-268.334 280.216c3.067 1.583 6.133 4.749 9.2 6.333l256.067-267.55c1.533-6.333 3.067-12.665 3.067-18.998v0zM871.457 715.579l-127.267 132.984c50.6-33.246 95.067-79.157 127.267-132.984v0zM874.523 299.213l-352.667 367.288c1.533 3.166 3.067 7.916 4.6 11.082l354.201-368.871c-1.533-3.166-3.067-6.333-6.133-9.499v0zM754.923 166.23l-260.667 270.717c-1.533 6.333-1.533 12.665-3.067 18.998l272.934-283.382c-3.067-1.583-6.133-4.749-9.2-6.333v0zM633.79 188.394l-58.267 61.742c-12.267 15.831-24.533 34.829-33.733 52.244l145.667-150.398c-19.933 11.082-36.8 22.164-53.667 36.412v0zM782.523 188.394l-292.867 305.546v17.415l303.601-315.045c-4.6-3.166-7.667-6.333-10.733-7.916v0zM724.256 147.232l-211.6 220.056c-3.067 7.916-6.133 17.415-9.2 25.33l230-240.637c-3.067-1.583-6.133-3.166-9.2-4.749v0zM854.59 267.55l-346.534 360.956c1.533 4.749 3.067 7.916 4.6 12.665l349.601-364.122c-1.533-3.166-4.6-6.333-7.667-9.499v0zM810.123 212.141l-318.934 330.876c0 4.749 0 11.082 1.533 15.831l325.067-338.792c-3.067-1.583-6.133-4.749-7.667-7.916v0zM834.657 239.054l-335.801 348.291c1.533 4.749 1.533 9.499 3.067 14.248l340.401-354.623c-3.067-1.583-6.133-4.749-7.667-7.916v0zM1403.524 503.438c0 277.049-219.267 503.438-487.601 503.438s-486.068-226.389-486.068-503.438c0-182.061 95.067-341.958 236.134-430.614v0 0c13.8-7.916 27.6-15.831 42.933-23.747v0 0c62.867-30.080 133.4-49.077 207-49.077 268.334 0 487.601 226.389 487.601 503.438v0zM1365.191 503.438c0-254.885-200.867-463.86-449.268-463.86-58.267 0-113.467 11.082-164.067 33.246-15.333 6.333-29.133 12.665-42.933 20.581-142.6 77.574-240.734 231.138-240.734 410.033s98.134 332.459 240.734 410.033v0c13.8 7.916 27.6 14.248 42.933 20.581v0c50.6 20.581 105.8 33.246 164.067 33.246 248.4 0 449.268-208.974 449.268-463.86v0z"></path>
</symbol>
<symbol id="icon-icon_energy" viewBox="0 0 902 1024">
	<title>icon_energy</title>
	<path fill="#444444" class="path1" d="M778.113 207.435c-11.618-16.14-30.521-26.679-51.914-26.679-35.342 0-64.003 28.655-64.003 63.997 0 15.216 5.341 29.17 14.203 40.157l-0.559 0.565c60.499 60.471 93.998 140.991 93.998 226.603 0 176.493-143.498 319.992-319.997 319.992v-64.003l-127.994 128 127.994 127.994v-63.992c246.994 0 447.992-200.997 447.992-447.992 0-114.057-42.383-221.488-119.719-304.643z"></path>
	<path fill="#444444" class="path2" d="M577.84 128.089l-128-128v63.997c-246.994 0-447.986 200.997-447.986 447.992 0 119.874 46.744 232.492 131.758 317.23 10.639 7.888 24.737 11.651 38.995 11.651 35.364 0 64.003-28.644 64.003-64.003 0-14.358-4.782-27.576-12.781-38.259l0.022-0.022c-0.066-0.055-0.122-0.116-0.183-0.188-3.061-4.068-6.565-7.799-10.5-11.026-53.741-59.049-83.315-134.958-83.315-215.383 0-176.488 143.493-319.997 319.986-319.997v64.003l128-127.994z"></path>
	<path fill="#444444" class="path3" d="M534.262 380.22h-172.414c-41.242 27.77-68.403 74.868-68.403 128.354 0 53.469 27.161 100.568 68.403 128.349h172.414c41.253-27.781 68.398-74.879 68.398-128.349 0-53.486-27.144-100.584-68.398-128.354v0zM402.886 505.457c0 5.247-5.923 9.504-13.24 9.504-7.301 0-13.223-4.257-13.223-9.504v-69.333c0-5.236 5.923-9.498 13.223-9.498 7.317 0 13.24 4.262 13.24 9.498v69.333zM448.064 600.529c-13.306 0-24.083-10.788-24.083-24.083 0-13.29 10.777-24.061 24.083-24.061 13.301 0 24.078 10.771 24.078 24.061 0 13.295-10.777 24.083-24.078 24.083v0zM519.279 505.457c0 5.247-6.017 9.504-13.439 9.504-7.417 0-13.417-4.257-13.417-9.504v-69.333c0-5.236 6-9.498 13.417-9.498 7.423 0 13.439 4.262 13.439 9.498v69.333z"></path>
</symbol>
<symbol id="icon-icon_food" viewBox="0 0 902 1024">
	<title>icon_food</title>
	<path fill="#444444" class="path1" d="M777.067 207.446c-11.613-16.14-30.515-26.679-51.925-26.679-35.336 0-63.992 28.644-63.992 63.997 0 15.205 5.341 29.17 14.203 40.146l-0.559 0.565c60.488 60.482 93.992 140.991 93.992 226.614 0 176.482-143.498 319.981-319.986 319.981v-64.003l-127.994 128 127.994 127.994v-63.992c246.994 0 447.986-200.997 447.986-447.981 0-114.063-42.388-221.5-119.719-304.643z"></path>
	<path fill="#444444" class="path2" d="M576.794 128.089l-127.994-128v63.997c-246.994 0-447.992 201.008-447.992 448.003 0 119.863 46.739 232.481 131.758 317.219 10.639 7.899 24.737 11.657 39.001 11.657 35.353 0 63.992-28.65 63.992-63.997 0-14.358-4.777-27.576-12.775-38.259l0.017-0.022c-0.055-0.055-0.116-0.127-0.177-0.199-3.061-4.057-6.554-7.799-10.5-11.015-53.741-59.060-83.32-134.963-83.32-215.383 0-176.499 143.504-320.008 319.997-320.008v64.014l127.994-128.006z"></path>
	<path fill="#444444" class="path3" d="M210.485 533.692c1.661 5.38 7.423 8.541 12.775 6.858l7.423-2.286 88.296-27.338c5.502-1.705 11.059 0.399 12.764 5.895 1.721 5.53-1.146 12.199-6.642 13.893l-80.116 25.982-15.244 4.727c-5.38 1.672-9.155 4.921-7.5 10.306l1.461 4.705c1.683 5.38 6.626 5.939 12 4.257l15.26-4.716 80.78-23.834c5.513-1.705 11.618 2.164 13.318 7.683 1.699 5.507-1.677 10.389-7.196 12.094l-95.697 29.635c-5.386 1.661-8.341 7.539-6.686 12.902 1.661 5.386 7.439 8.579 12.825 6.919l20.674-6.421c0.105-0.033 0.221-0.061 0.321-0.1l121.518-37.633c10.179-3.149 16.461-13.185 14.502-23.425h0.017c-1.494-10.223 4.644-20.408 14.342-23.408l209.937-53.824c1.295-0.399 2.419-1.041 3.437-1.744 0.299-0.083 0.598-0.094 0.897-0.194 14.043-4.34 21.88-19.229 17.524-33.25-4.34-14.032-19.224-21.875-33.244-17.524-0.299 0.094-0.576 0.255-0.875 0.365-1.245-0.022-2.496 0.1-3.786 0.498l-6.299 2.369-197.311 71.89c-9.698 3-20.164-1.959-25.080-11.214v-0.017c-4.179-9.515-15.017-14.281-25.224-11.115l-121.491 37.617c-0.122 0.033-0.221 0.077-0.343 0.111l-20.679 6.393c-5.38 1.672-8.341 7.567-6.659 12.941z"></path>
</symbol>
<symbol id="icon-icon_hexagon" viewBox="0 0 1049 1024">
	<title>icon_hexagon</title>
	<path fill="rgb(255, 255, 255)" class="path1 fill-color9" d="M1036.422 856.101c0 81.437-66.011 147.456-147.456 147.456h-717.292c-81.437 0-147.448-66.019-147.448-147.456v-696.32c0-81.445 66.011-147.456 147.448-147.456h717.292c81.445 0 147.456 66.011 147.456 147.456v696.32z"></path>
	<path fill="rgb(10, 11, 9)" class="path2 fill-color1" d="M37.105 671.879h983.876v2.048h-983.876v-2.048z"></path>
	<path fill="rgb(10, 11, 9)" class="path3 fill-color1" d="M37.105 343.765h983.876v2.048h-983.876v-2.048z"></path>
	<path fill="rgb(10, 11, 9)" class="path4 fill-color1" d="M692.088 16.904h2.048v983.892h-2.048v-983.892z"></path>
	<path fill="rgb(10, 11, 9)" class="path5 fill-color1" d="M363.941 16.904h2.048v983.892h-2.048v-983.892z"></path>
	<path fill="rgb(255, 255, 255)" class="path6 fill-color9" d="M343.674 618.607l-73.163-126.738 73.163-126.73h146.358l73.163 126.73-73.163 126.738h-146.358z"></path>
	<path fill="rgb(26, 25, 24)" class="path7 fill-color2" d="M343.674 618.607l10.641-6.144-69.616-120.603 66.068-114.434h132.17l66.068 114.442-66.068 114.45h-139.264v24.576h153.453l80.257-139.026-80.257-139.018h-160.547l-80.257 139.018 80.249 139.026h7.102v-12.288z"></path>
	<path fill="rgb(255, 255, 255)" class="path8 fill-color9" d="M629.026 659.1l-43.123-74.711 43.123-74.711h86.278l43.131 74.711-43.131 74.711h-86.278z"></path>
	<path fill="rgb(26, 25, 24)" class="path9 fill-color2" d="M629.026 659.1l10.641-6.144-39.576-68.567 36.028-62.423h72.090l36.037 62.423-36.037 62.423h-79.184v24.576h93.372l50.225-86.999-50.225-86.999h-100.475l-50.209 86.999 50.217 86.999h7.094v-12.288z"></path>
	<path fill="rgb(255, 255, 255)" class="path10 fill-color9" d="M612.536 436.015l-25.772-44.671 25.772-44.663h51.593l25.78 44.663-25.78 44.671h-51.593z"></path>
	<path fill="rgb(26, 25, 24)" class="path11 fill-color2" d="M612.536 436.015l10.641-6.136-22.233-38.535 18.686-32.375h37.405l18.686 32.375-18.686 32.383h-44.499v24.576h58.687l32.874-56.959-32.874-56.951h-65.79l-32.858 56.951 32.858 56.959h7.102v-12.288z"></path>
	<path fill="rgb(10, 11, 9)" class="path12 fill-color1" d="M882.642 1016.746h-717.292c-88.080 0-159.744-71.664-159.744-159.744v-696.32c0-88.089 71.664-159.744 159.744-159.744h717.292c88.080 0 159.744 71.655 159.744 159.744v696.32c0 88.080-71.664 159.744-159.744 159.744v0zM165.351 25.514c-74.523 0-135.168 60.637-135.168 135.168v696.32c0 74.531 60.645 135.168 135.168 135.168h717.292c74.531 0 135.168-60.637 135.168-135.168v-696.32c0-74.531-60.637-135.168-135.168-135.168h-717.292z"></path>
</symbol>
<symbol id="icon-icon_highway-elevated" viewBox="0 0 1040 1024">
	<title>icon_highway-elevated</title>
	<path fill="rgb(255, 255, 255)" class="path1 fill-color9" d="M1021.291 858.051c0 81.445-66.019 147.456-147.456 147.456h-717.283c-81.437 0-147.456-66.011-147.456-147.456v-696.32c0-81.437 66.019-147.456 147.456-147.456h717.283c81.437 0 147.456 66.019 147.456 147.456v696.32z"></path>
	<path fill="rgb(10, 11, 9)" class="path2 fill-color1" d="M22.285 681.398h983.876v2.048h-983.876v-2.048z"></path>
	<path fill="rgb(10, 11, 9)" class="path3 fill-color1" d="M22.285 353.284h983.876v2.048h-983.876v-2.048z"></path>
	<path fill="rgb(10, 11, 9)" class="path4 fill-color1" d="M677.26 26.423h2.048v983.884h-2.048v-983.884z"></path>
	<path fill="rgb(10, 11, 9)" class="path5 fill-color1" d="M349.113 26.423h2.048v983.884h-2.048v-983.884z"></path>
	<path fill="rgb(26, 25, 24)" class="path6 fill-color2" d="M278.973 373.502c0-6.676-2.163-12.698-5.603-17.007v-15.221c0-10.895-9.601-19.694-21.438-19.694h-67.33c-11.854 0-21.455 8.798-21.455 19.694v15.491h0.369c-3.293 4.293-5.358 10.174-5.358 16.736 0 5.407 1.417 10.33 3.793 14.303-2.195 1.122-3.793 4.080-3.793 7.692 0 4.53 2.49 8.208 5.562 8.208h6.103l-0.066 0.385v9.634c0 3.285 2.654 5.972 5.964 5.972 3.269 0 5.972-2.687 5.972-5.972v-9.634l-0.115-0.385h76.112l-0.082 0.385v9.634c0 3.285 2.671 5.972 5.956 5.972 3.293 0 5.964-2.687 5.964-5.972v-9.634l-0.082-0.385h3.94c3.072 0 5.587-3.678 5.587-8.208 0-3.613-1.606-6.57-3.809-7.692 2.335-3.973 3.809-8.897 3.809-14.303v0zM175.721 378.606c-2.81 0-5.071-2.302-5.071-5.087 0-2.81 2.261-5.063 5.071-5.063 2.785 0 5.071 2.253 5.071 5.063 0 2.785-2.286 5.087-5.071 5.087v0zM261.229 378.606c-2.802 0-5.079-2.302-5.079-5.087 0-2.81 2.277-5.063 5.079-5.063 2.793 0 5.087 2.253 5.087 5.063 0 2.785-2.294 5.087-5.087 5.087v0z"></path>
	<path fill="rgb(255, 255, 255)" class="path7 fill-color9" d="M184.38 374.305c0-4.784-3.891-8.659-8.659-8.659-4.784 0-8.659 3.875-8.659 8.659 0 4.776 3.875 8.651 8.659 8.651 4.768 0 8.659-3.875 8.659-8.651z"></path>
	<path fill="rgb(255, 255, 255)" class="path8 fill-color9" d="M269.806 374.305c0-4.784-3.875-8.659-8.659-8.659s-8.659 3.875-8.659 8.659c0 4.776 3.875 8.651 8.659 8.651 4.801 0 8.659-3.875 8.659-8.651z"></path>
	<path fill="rgb(26, 25, 24)" class="path9 fill-color2" d="M562.604 375.919c-13.042 0-23.618 10.568-23.618 23.618v19.62h-410.468v-19.62c0-13.050-10.559-23.618-23.609-23.618-13.025 0-23.601 10.568-23.601 23.618v43.237c0 13.042 10.576 23.618 23.601 23.618h203.915v423.215c0 13.050 10.576 23.618 23.618 23.618s23.618-10.568 23.618-23.618v-423.215h206.545c13.033 0 23.618-10.576 23.618-23.618v-43.237c0-13.050-10.584-23.618-23.618-23.618z"></path>
	<path fill="rgb(26, 25, 24)" class="path10 fill-color2" d="M1027.001 797.577v55.828c0 81.437-66.011 147.456-147.456 147.456h-717.283c-81.437 0-147.456-66.019-147.456-147.456v-55.828z"></path>
	<path fill="rgb(10, 11, 9)" class="path11 fill-color1" d="M878.668 1022.587h-717.283c-88.080 0-159.744-71.655-159.744-159.744v-696.32c0-88.080 71.664-159.744 159.744-159.744h717.283c88.080 0 159.744 71.664 159.744 159.744v696.32c0 88.089-71.664 159.744-159.744 159.744v0zM161.385 31.355c-74.539 0-135.168 60.637-135.168 135.168v696.32c0 74.531 60.629 135.168 135.168 135.168h717.283c74.523 0 135.168-60.637 135.168-135.168v-696.32c0-74.531-60.645-135.168-135.168-135.168h-717.283z"></path>
</symbol>
<symbol id="icon-icon_highway-recessed" viewBox="0 0 1040 1024">
	<title>icon_highway-recessed</title>
	<path fill="rgb(255, 255, 255)" class="path1 fill-color9" d="M1032.489 861.942c0 81.437-66.011 147.456-147.456 147.456h-717.3c-81.437 0-147.456-66.019-147.456-147.456v-696.32c0-81.437 66.019-147.456 147.456-147.456h717.3c81.445 0 147.456 66.019 147.456 147.456v696.32z"></path>
	<path fill="rgb(10, 11, 9)" class="path2 fill-color1" d="M27.192 677.728h983.876v2.048h-983.876v-2.048z"></path>
	<path fill="rgb(10, 11, 9)" class="path3 fill-color1" d="M27.192 349.614h983.876v2.048h-983.876v-2.048z"></path>
	<path fill="rgb(10, 11, 9)" class="path4 fill-color1" d="M682.191 22.745h2.048v983.884h-2.048v-983.884z"></path>
	<path fill="rgb(10, 11, 9)" class="path5 fill-color1" d="M354.044 22.745h2.048v983.884h-2.048v-983.884z"></path>
	<path fill="rgb(26, 25, 24)" class="path6 fill-color2" d="M740.248 756.421c0-8.339-2.687-15.86-6.971-21.25v-19.005c0-13.607-12.001-24.609-26.804-24.609h-84.107c-14.803 0-26.804 11.002-26.804 24.609v19.333h0.467c-4.129 5.382-6.709 12.73-6.709 20.922 0 6.758 1.794 12.894 4.743 17.875-2.736 1.393-4.743 5.087-4.743 9.601 0 5.661 3.121 10.265 6.963 10.265h7.619l-0.082 0.475v12.034c0 4.112 3.326 7.455 7.455 7.455 4.096 0 7.438-3.342 7.438-7.455v-12.034l-0.106-0.475h95.068l-0.090 0.475v12.034c0 4.112 3.342 7.455 7.447 7.455s7.447-3.342 7.447-7.455v-12.034l-0.098-0.475h4.899c3.834 0 6.971-4.604 6.971-10.265 0-4.514-1.999-8.208-4.735-9.601 2.916-4.981 4.735-11.117 4.735-17.875v0zM611.273 762.786c-3.523 0-6.332-2.859-6.332-6.341 0-3.514 2.81-6.341 6.332-6.341 3.49 0 6.341 2.826 6.341 6.341 0 3.482-2.851 6.341-6.341 6.341v0zM718.089 762.786c-3.498 0-6.332-2.859-6.332-6.341 0-3.514 2.834-6.341 6.332-6.341 3.506 0 6.349 2.826 6.349 6.341 0 3.482-2.843 6.341-6.349 6.341v0z"></path>
	<path fill="rgb(255, 255, 255)" class="path7 fill-color9" d="M622.234 757.543c0-5.98-4.85-10.822-10.813-10.822-5.972 0-10.822 4.841-10.822 10.822 0 5.972 4.85 10.813 10.822 10.813 5.964 0 10.813-4.841 10.813-10.813z"></path>
	<path fill="rgb(255, 255, 255)" class="path8 fill-color9" d="M728.951 757.543c0-5.98-4.85-10.822-10.813-10.822s-10.813 4.841-10.813 10.822c0 5.972 4.85 10.813 10.813 10.813s10.813-4.841 10.813-10.813z"></path>
	<path fill="rgb(26, 25, 24)" class="path9 fill-color2" d="M1029.327 807.94v55.828c0 81.437-66.019 147.456-147.456 147.456h-717.283c-81.437 0-147.456-66.019-147.456-147.456v-55.828z"></path>
	<path fill="rgb(26, 25, 24)" class="path10 fill-color2" d="M1029.327 515.609v304.824h-218.538v-6.308l74.596-298.516h143.942z"></path>
	<path fill="rgb(26, 25, 24)" class="path11 fill-color2" d="M17.034 513.774v304.824h218.53v-6.308l-74.596-298.516h-143.933z"></path>
	<path fill="rgb(10, 11, 9)" class="path12 fill-color1" d="M878.701 1022.587h-717.283c-88.080 0-159.744-71.655-159.744-159.744v-696.32c0-88.080 71.664-159.744 159.744-159.744h717.283c88.080 0 159.744 71.664 159.744 159.744v696.32c0 88.089-71.664 159.744-159.744 159.744v0zM161.418 31.355c-74.523 0-135.168 60.637-135.168 135.168v696.32c0 74.531 60.645 135.168 135.168 135.168h717.283c74.539 0 135.168-60.637 135.168-135.168v-696.32c0-74.531-60.629-135.168-135.168-135.168h-717.283z"></path>
</symbol>
<symbol id="icon-icon_image" viewBox="0 0 1291 1024">
	<title>icon_image</title>
	<path fill="#444444" class="path1" d="M1228.726 10.667h-1166.321c-23.671 0-43.038 19.2-43.038 42.667v917.333c0 23.467 19.367 42.667 43.038 42.667h1166.321c23.671 0 43.038-19.2 43.038-42.667v-917.333c0-23.467-19.367-42.667-43.038-42.667v0zM1185.688 96v593.067c-73.164-2.133-111.898-27.733-154.936-55.467-49.493-34.133-105.442-70.4-213.037-70.4s-163.543 38.4-213.037 70.4c-45.19 29.867-83.923 57.6-165.695 57.6s-120.506-25.6-163.543-57.6c-43.038-27.733-90.379-59.733-169.999-68.267v-469.333h1080.246zM105.442 928v-277.333c53.797 8.533 86.075 29.867 120.506 53.333 49.493 34.133 105.442 70.4 213.037 70.4s163.543-38.4 213.037-70.4c45.19-29.867 83.923-57.6 163.543-57.6 81.772 0 120.506 25.6 163.543 57.6 47.341 32 101.139 68.267 202.277 70.4v153.6h-1075.942z"></path>
	<path fill="#444444" class="path2" d="M314.175 413.867c60.253 0 111.898-49.067 111.898-110.933s-49.493-110.933-111.898-110.933c-60.253 0-111.898 49.067-111.898 110.933s51.645 110.933 111.898 110.933v0zM314.175 279.467c12.911 0 25.823 10.667 25.823 25.6s-10.759 25.6-25.823 25.6c-12.911 0-25.823-10.667-25.823-25.6s12.911-25.6 25.823-25.6v0z"></path>
</symbol>
<symbol id="icon-icon_industrial" viewBox="0 0 1040 1024">
	<title>icon_industrial</title>
	<path fill="rgb(255, 255, 255)" class="path1 fill-color9" d="M1022.97 857.002c0 81.437-66.011 147.456-147.456 147.456h-717.292c-81.437 0-147.456-66.019-147.456-147.456v-696.32c0-81.445 66.019-147.456 147.456-147.456h717.292c81.445 0 147.456 66.011 147.456 147.456v696.32z"></path>
	<path fill="rgb(10, 11, 9)" class="path2 fill-color1" d="M28.167 671.879h983.876v2.048h-983.876v-2.048z"></path>
	<path fill="rgb(10, 11, 9)" class="path3 fill-color1" d="M28.167 343.765h983.876v2.048h-983.876v-2.048z"></path>
	<path fill="rgb(10, 11, 9)" class="path4 fill-color1" d="M683.15 16.904h2.048v983.876h-2.048v-983.876z"></path>
	<path fill="rgb(10, 11, 9)" class="path5 fill-color1" d="M355.003 16.904h2.048v983.876h-2.048v-983.876z"></path>
	<path fill="rgb(26, 25, 24)" class="path6 fill-color2" d="M548.047 308.49v-75.104h-107.094v-89.268h-22.315v89.268h-20.087v-69.181h-22.307v69.181h-31.244v75.104h-95.764v-59.523l0.115-0.524v-53.092h17.465c1.655 0 2.048-0.958 0.893-2.122l-49.226-49.734c-1.155-1.163-3.047-1.163-4.211 0l-49.209 49.734c-1.155 1.163-0.754 2.122 0.893 2.122h17.457v51.298h-0.049v61.841h-118.604v499.917h650.838v-499.917h-167.551zM243.747 303.305l-24.183-22.004 24.183-21.996v43.999zM237.185 258.249l-21.488 19.538-21.488-19.538h42.975zM188.853 260.395l22.979 20.906-22.979 20.914v-41.82zM215.698 284.824l26.010 23.667h-52.027l26.018-23.667z"></path>
	<path fill="rgb(255, 255, 255)" class="path7 fill-color9" d="M630.418 596.251h51.306v25.649h-51.306v-25.649z"></path>
	<path fill="rgb(255, 255, 255)" class="path8 fill-color9" d="M630.418 633.287h51.306v25.633h-51.306v-25.633z"></path>
	<path fill="rgb(255, 255, 255)" class="path9 fill-color9" d="M630.418 670.298h51.306v25.649h-51.306v-25.649z"></path>
	<path fill="rgb(255, 255, 255)" class="path10 fill-color9" d="M630.418 707.318h51.306v25.649h-51.306v-25.649z"></path>
	<path fill="rgb(255, 255, 255)" class="path11 fill-color9" d="M563.956 596.251h51.298v25.649h-51.298v-25.649z"></path>
	<path fill="rgb(255, 255, 255)" class="path12 fill-color9" d="M563.956 633.287h51.298v25.633h-51.298v-25.633z"></path>
	<path fill="rgb(255, 255, 255)" class="path13 fill-color9" d="M563.956 670.298h51.298v25.649h-51.298v-25.649z"></path>
	<path fill="rgb(255, 255, 255)" class="path14 fill-color9" d="M563.956 707.318h51.298v25.649h-51.298v-25.649z"></path>
	<path fill="rgb(255, 255, 255)" class="path15 fill-color9" d="M497.478 596.251h51.29v25.649h-51.29v-25.649z"></path>
	<path fill="rgb(255, 255, 255)" class="path16 fill-color9" d="M497.478 633.287h51.29v25.633h-51.29v-25.633z"></path>
	<path fill="rgb(255, 255, 255)" class="path17 fill-color9" d="M497.478 670.298h51.29v25.649h-51.29v-25.649z"></path>
	<path fill="rgb(255, 255, 255)" class="path18 fill-color9" d="M497.478 707.318h51.29v25.649h-51.29v-25.649z"></path>
	<path fill="rgb(255, 255, 255)" class="path19 fill-color9" d="M431 596.251h51.29v25.649h-51.29v-25.649z"></path>
	<path fill="rgb(255, 255, 255)" class="path20 fill-color9" d="M431 633.287h51.29v25.633h-51.29v-25.633z"></path>
	<path fill="rgb(255, 255, 255)" class="path21 fill-color9" d="M431 670.298h51.29v25.649h-51.29v-25.649z"></path>
	<path fill="rgb(255, 255, 255)" class="path22 fill-color9" d="M431 707.318h51.29v25.649h-51.29v-25.649z"></path>
	<path fill="rgb(255, 255, 255)" class="path23 fill-color9" d="M364.522 596.251h51.306v25.649h-51.306v-25.649z"></path>
	<path fill="rgb(255, 255, 255)" class="path24 fill-color9" d="M364.522 633.287h51.306v25.633h-51.306v-25.633z"></path>
	<path fill="rgb(255, 255, 255)" class="path25 fill-color9" d="M364.522 670.298h51.306v25.649h-51.306v-25.649z"></path>
	<path fill="rgb(255, 255, 255)" class="path26 fill-color9" d="M364.522 707.318h51.306v25.649h-51.306v-25.649z"></path>
	<path fill="rgb(255, 255, 255)" class="path27 fill-color9" d="M298.044 596.251h51.306v25.649h-51.306v-25.649z"></path>
	<path fill="rgb(255, 255, 255)" class="path28 fill-color9" d="M298.044 633.287h51.306v25.633h-51.306v-25.633z"></path>
	<path fill="rgb(255, 255, 255)" class="path29 fill-color9" d="M298.044 670.298h51.306v25.649h-51.306v-25.649z"></path>
	<path fill="rgb(255, 255, 255)" class="path30 fill-color9" d="M298.044 707.318h51.306v25.649h-51.306v-25.649z"></path>
	<path fill="rgb(255, 255, 255)" class="path31 fill-color9" d="M231.566 596.251h51.306v25.649h-51.306v-25.649z"></path>
	<path fill="rgb(255, 255, 255)" class="path32 fill-color9" d="M231.566 633.287h51.306v25.633h-51.306v-25.633z"></path>
	<path fill="rgb(255, 255, 255)" class="path33 fill-color9" d="M231.566 670.298h51.306v25.649h-51.306v-25.649z"></path>
	<path fill="rgb(255, 255, 255)" class="path34 fill-color9" d="M231.566 707.318h51.306v25.649h-51.306v-25.649z"></path>
	<path fill="rgb(255, 255, 255)" class="path35 fill-color9" d="M165.088 596.251h51.298v25.649h-51.298v-25.649z"></path>
	<path fill="rgb(255, 255, 255)" class="path36 fill-color9" d="M165.088 633.287h51.298v25.633h-51.298v-25.633z"></path>
	<path fill="rgb(255, 255, 255)" class="path37 fill-color9" d="M165.088 670.298h51.298v25.649h-51.298v-25.649z"></path>
	<path fill="rgb(255, 255, 255)" class="path38 fill-color9" d="M165.088 707.318h51.298v25.649h-51.298v-25.649z"></path>
	<path fill="rgb(255, 255, 255)" class="path39 fill-color9" d="M98.626 596.251h51.29v25.649h-51.29v-25.649z"></path>
	<path fill="rgb(255, 255, 255)" class="path40 fill-color9" d="M98.626 633.287h51.29v25.633h-51.29v-25.633z"></path>
	<path fill="rgb(255, 255, 255)" class="path41 fill-color9" d="M98.626 670.298h51.29v25.649h-51.29v-25.649z"></path>
	<path fill="rgb(255, 255, 255)" class="path42 fill-color9" d="M98.626 707.318h51.29v25.649h-51.29v-25.649z"></path>
	<path fill="rgb(26, 25, 24)" class="path43 fill-color2" d="M1020.39 795.21v55.82c0 81.445-66.019 147.456-147.456 147.456h-717.292c-81.445 0-147.456-66.011-147.456-147.456v-55.82z"></path>
	<path fill="rgb(10, 11, 9)" class="path44 fill-color1" d="M878.742 1016.746h-717.292c-88.080 0-159.744-71.664-159.744-159.744v-696.32c0-88.089 71.664-159.744 159.744-159.744h717.292c88.080 0 159.744 71.655 159.744 159.744v696.32c0 88.080-71.664 159.744-159.744 159.744v0zM161.45 25.514c-74.531 0-135.168 60.637-135.168 135.168v696.32c0 74.531 60.637 135.168 135.168 135.168h717.292c74.531 0 135.168-60.637 135.168-135.168v-696.32c0-74.531-60.637-135.168-135.168-135.168h-717.292z"></path>
</symbol>
<symbol id="icon-icon_link" viewBox="0 0 3482 1024">
	<title>icon_link</title>
	<path fill="#444444" class="path1" d="M3271.307 159.906c-90.524-90.524-215.705-147.037-353.085-146.965l-943.148-0.887c-128.786 0.068-246.813 49.881-335.764 130.773l-33.583 33.583c-80.906 88.936-130.705 206.977-130.773 335.764-0.047 89.438 23.541 173.596 65.176 246.443 53.626-7.503 104.185-32.472 143.053-71.34 1.708-1.708 2.945-3.769 4.609-5.521-29.33-49.648-46.384-107.69-46.352-169.67 0.097-184.38 149.18-333.463 333.56-333.56l943.148 0.887c92.175-0.048 175.634 37.593 235.861 97.82s97.412 143.2 97.364 235.405c-0.097 184.38-149.18 333.463-333.56 333.56l-933.951-0.878c-19.247 27.248-41.201 53.143-65.346 77.289-26.074 26.074-54.118 48.824-83.736 69.028 44.344 12.985 91.414 20.185 139.797 20.16l943.148 0.887c128.786-0.068 246.813-49.881 335.764-130.773l33.583-33.583c80.906-88.936 130.705-206.977 130.773-335.764 0.072-137.38-55.971-262.090-146.509-352.629l-0.029-0.029zM1941.377 264.538c-54.817 6.43-105.45 31.914-144.436 70.9-1.561 1.561-2.621 3.474-4.152 5.064 30.757 50.398 48.679 109.278 48.645 172.877-0.097 184.203-148.974 332.727-333.104 333.104l-944.53-2.27c-0.153 0.152-0.305 0.304-0.456 0.456-184.38 0.097-333.307-148.83-333.21-333.21 0.097-184.733 146.884-331.431 333.102-330.337 0.153-0.152 0.305-0.304 0.456-0.456l930.273-0.033c19.807-28.455 42.541-55.425 67.629-80.512 25.456-25.456 52.617-47.793 81.439-67.644-42.888-12.088-88.163-18.818-134.736-18.779l-944.532 1.409c-137.806-0.678-262.678 54.569-353.238 144.57s-146.808 214.755-146.88 351.871c-0.144 274.554 224.628 499.003 499.138 499.138l0.456 0.456 944.53 2.27c118.574-0.062 228.121-42.102 314.137-111.911l74.070-74.070c69.809-86.017 111.849-195.563 111.911-314.137 0.048-90.409-24.144-175.435-66.543-248.753h0.029z"></path>
</symbol>
<symbol id="icon-icon_logo" viewBox="0 0 1024 1024">
	<title>icon_logo</title>
	<path fill="currentColor" d="M1000.516 1016.292v-381.883c-0.218-80.107 1.939-143.803 0-238.813l-19.715-64.304c-73.168-192.941-257.789-331.292-472.856-331.292-1.010 0-2.007 0.069-3.004 0.083-1.352-0.028-2.649-0.083-4-0.083-274.896 0-500.941 227.688-500.941 506.313 0 1.439 0.082 2.823 0.109 4.248-0.027 1.439-0.109 2.837-0.109 4.276 0 55.919 8.465 107.548 24.030 154.859 70.397 199.957 257.966 344.216 476.624 344.313l113.773-171.133-113.487-182.41c-53.357 0-101.28-29.807-128.546-73.41-11.851-21.795-18.664-46.44-18.664-72.22 0-84.618 70.724-156.326 154.214-156.326 28.358 0 55.255 8.718 78.466 23.4 2.772 2.020 5.53 4.041 8.165 6.213 25.914 18.072 46.121 44.655 57.071 75.319v552.849z"></path>
</symbol>
<symbol id="icon-icon_lroof" viewBox="0 0 1049 1024">
	<title>icon_lroof</title>
	<path fill="rgb(255, 255, 255)" class="path1 fill-color9" d="M1037.594 857.821c0 81.437-66.019 147.456-147.456 147.456h-717.292c-81.437 0-147.456-66.019-147.456-147.456v-696.32c0-81.437 66.019-147.456 147.456-147.456h717.292c81.437 0 147.456 66.019 147.456 147.456v696.32z"></path>
	<path fill="rgb(10, 11, 9)" class="path2 fill-color1" d="M38.268 673.608h983.876v2.048h-983.876v-2.048z"></path>
	<path fill="rgb(10, 11, 9)" class="path3 fill-color1" d="M38.268 345.494h983.876v2.048h-983.876v-2.048z"></path>
	<path fill="rgb(10, 11, 9)" class="path4 fill-color1" d="M693.259 18.633h2.048v983.884h-2.048v-983.884z"></path>
	<path fill="rgb(10, 11, 9)" class="path5 fill-color1" d="M365.113 18.633h2.048v983.884h-2.048v-983.884z"></path>
	<path fill="rgb(120, 188, 87)" class="path6 fill-color6" d="M890.908 469.61h-748.167c-22.618 0-40.96 18.342-40.96 40.96 0 22.626 18.342 40.96 40.96 40.96h748.167c22.618 0 40.96-18.334 40.96-40.96 0-22.618-18.342-40.96-40.96-40.96z"></path>
	<path fill="rgb(10, 11, 9)" class="path7 fill-color1" d="M883.805 1018.466h-717.283c-88.080 0-159.744-71.655-159.744-159.744v-696.32c0-88.080 71.664-159.744 159.744-159.744h717.283c88.080 0 159.744 71.664 159.744 159.744v696.32c0 88.089-71.664 159.744-159.744 159.744v0zM166.522 27.234c-74.539 0-135.168 60.637-135.168 135.168v696.32c0 74.531 60.629 135.168 135.168 135.168h717.283c74.531 0 135.168-60.637 135.168-135.168v-696.32c0-74.531-60.637-135.168-135.168-135.168h-717.283z"></path>
</symbol>
<symbol id="icon-icon_lwall" viewBox="0 0 1049 1024">
	<title>icon_lwall</title>
	<path fill="rgb(255, 255, 255)" class="path1 fill-color9" d="M1036.422 857.821c0 81.437-66.011 147.456-147.456 147.456h-717.292c-81.445 0-147.456-66.019-147.456-147.456v-696.32c0-81.437 66.011-147.456 147.456-147.456h717.292c81.445 0 147.456 66.019 147.456 147.456v696.32z"></path>
	<path fill="rgb(10, 11, 9)" class="path2 fill-color1" d="M37.097 673.608h983.876v2.048h-983.876v-2.048z"></path>
	<path fill="rgb(10, 11, 9)" class="path3 fill-color1" d="M37.097 345.494h983.876v2.048h-983.876v-2.048z"></path>
	<path fill="rgb(10, 11, 9)" class="path4 fill-color1" d="M692.088 18.633h2.048v983.884h-2.048v-983.884z"></path>
	<path fill="rgb(10, 11, 9)" class="path5 fill-color1" d="M363.941 18.633h2.048v983.884h-2.048v-983.884z"></path>
	<path fill="rgb(120, 188, 87)" class="path6 fill-color6" d="M489.352 171.807v724.853c0 22.626 18.342 40.96 40.96 40.96s40.96-18.334 40.96-40.96v-724.853c0-22.626-18.342-40.96-40.96-40.96s-40.96 18.334-40.96 40.96z"></path>
	<path fill="rgb(10, 11, 9)" class="path7 fill-color1" d="M882.634 1018.466h-717.283c-88.080 0-159.744-71.655-159.744-159.744v-696.32c0-88.080 71.664-159.744 159.744-159.744h717.283c88.080 0 159.744 71.664 159.744 159.744v696.32c0 88.089-71.664 159.744-159.744 159.744v0zM165.351 27.234c-74.523 0-135.168 60.637-135.168 135.168v696.32c0 74.531 60.645 135.168 135.168 135.168h717.283c74.539 0 135.168-60.637 135.168-135.168v-696.32c0-74.531-60.629-135.168-135.168-135.168h-717.283z"></path>
</symbol>
<symbol id="icon-icon_map" viewBox="0 0 1024 1024">
	<title>icon_map</title>
	<path fill="currentColor" class="path1 fill-color6" d="M896 640h-128v-128h128v128zM672 160c0 23.876-5.25 46.562-14.626 66.876l-145.374 285.124-145.376-285.126c-9.374-20.312-14.624-42.998-14.624-66.874 0-88.376 71.626-160 160-160s160 71.626 160 160v0zM608 160c0-53-43-96-96-96s-96 43-96 96c0 53 43 96 96 96s96-43 96-96v0zM1024 256v640c0 70.688-57.312 128-128 128h-768c-70.688 0-128-57.312-128-128v-640c0-70.688 57.312-128 128-128h163.25c-1.5 10.5-3.25 21-3.25 32 0 10.812 2 21.376 3.5 32h-35.5v192h118.876l32.626 64h-151.502v256h384v-256h-23.562l87.562-171.75v107.75h256v-128c0-35.312-28.688-64-64-64h-163.438c1.564-10.624 3.438-21.124 3.438-32 0-11-1.688-21.5-3.25-32h163.25c70.688 0 128 57.312 128 128v0zM192 768h-128v128c0 35.312 28.75 64 64 64h64v-192zM192 448h-128v256h128v-256zM192 192h-64c-35.25 0-64 28.688-64 64v128h128v-192zM640 768h-384v192h384v-192zM960 768h-256v192h192c35.312 0 64-28.688 64-64v-128zM960 448h-256v256h256v-256z"></path>
</symbol>
<symbol id="icon-icon_map-filled" viewBox="0 0 1024 1024">
	<title>icon_map-filled</title>
	<path fill="rgb(120, 188, 87)" class="path1 fill-color6" d="M60.235 199.111h903.529v764.654h-903.529v-764.654z"></path>
	<path fill="rgb(255, 255, 255)" class="path2 fill-color9" d="M896 640h-128v-128h128v128zM1024 896c0 70.688-57.312 128-128 128h-768c-70.688 0-128-57.312-128-128v-640c0-70.688 57.312-128 128-128h163.25c-1.5 10.5-3.25 21-3.25 32 0 10.812 2 21.376 3.5 32h-35.5v192h118.876l32.626 64h-151.502v256h384v-256h-23.562l87.562-171.75v107.75h256v-128c0-35.312-28.688-64-64-64h-163.438c1.564-10.624 3.438-21.124 3.438-32 0-11-1.688-21.5-3.25-32h163.25c70.688 0 128 57.312 128 128v640zM192 768h-128v128c0 35.312 28.75 64 64 64h64v-192zM192 448h-128v256h128v-256zM192 192h-64c-35.25 0-64 28.688-64 64v128h128v-192zM640 768h-384v192h384v-192zM960 768h-256v192h192c35.312 0 64-28.688 64-64v-128zM960 448h-256v256h256v-256z"></path>
	<path fill="rgb(255, 255, 255)" class="path3 fill-color9" d="M672 160c0 23.876-5.25 46.562-14.626 66.876l-145.374 285.124-145.376-285.126c-9.374-20.312-14.624-42.998-14.624-66.874 0-88.376 71.626-160 160-160s160 71.626 160 160v0z"></path>
	<path fill="rgb(216, 216, 216)" class="path4 fill-color8" d="M608 160c0-53-43-96-96-96s-96 43-96 96c0 53 43 96 96 96s96-43 96-96v0z"></path>
</symbol>
<symbol id="icon-icon_parking" viewBox="0 0 1040 1024">
	<title>icon_parking</title>
	<path fill="rgb(255, 255, 255)" class="path1 fill-color9" d="M1033.333 861.049c0 81.437-66.011 147.456-147.456 147.456h-717.292c-81.437 0-147.456-66.019-147.456-147.456v-696.32c0-81.445 66.019-147.456 147.456-147.456h717.292c81.445 0 147.456 66.011 147.456 147.456v696.32z"></path>
	<path fill="rgb(10, 11, 9)" class="path2 fill-color1" d="M28.183 673.608h983.876v2.048h-983.876v-2.048z"></path>
	<path fill="rgb(10, 11, 9)" class="path3 fill-color1" d="M28.183 345.494h983.876v2.048h-983.876v-2.048z"></path>
	<path fill="rgb(10, 11, 9)" class="path4 fill-color1" d="M683.174 18.633h2.048v983.876h-2.048v-983.876z"></path>
	<path fill="rgb(10, 11, 9)" class="path5 fill-color1" d="M355.036 18.633h2.048v983.876h-2.048v-983.876z"></path>
	<path fill="rgb(26, 25, 24)" class="path6 fill-color2" d="M301.837 757.445c0-9.699-6.562-18.268-16.515-23.331v-13.631h-0.655c0.221-1.483 0.655-2.875 0.655-4.506 0-12.116-7.324-21.987-16.384-21.987h-123.773c-8.995 0-16.368 9.871-16.368 21.987 0 1.63 0.442 3.023 0.688 4.506h-0.688v8.806h-10.691c-20.75 0-37.569 12.591-37.569 28.156 0 3.94 1.090 7.668 3.039 11.059-1.745 1.343-3.039 3.211-3.039 5.579 0 4.096 3.342 7.414 7.406 7.414h10.789c1.475 0.688 2.99 1.36 4.588 1.868 0.991 9.503 8.798 17.056 18.547 17.056 9.011 0 16.163-6.398 18.113-14.787h105.619c0 10.453 8.479 18.932 18.924 18.932 10.478 0 18.981-8.479 18.981-18.932 0-1.343-0.532-2.507-0.803-3.76l0.975-0.377h10.764c4.088 0 7.397-3.318 7.397-7.414 0-2.367-1.27-4.235-2.998-5.579 1.892-3.391 2.998-7.119 2.998-11.059v0zM121.867 788.419c-3.809 0-6.947-3.088-6.947-6.922 0-3.858 3.138-6.947 6.947-6.947 3.858 0 6.93 3.088 6.93 6.947 0 3.834-3.072 6.922-6.93 6.922v0zM264.522 792.58c-3.826 0-6.93-3.105-6.93-6.947 0-3.817 3.105-6.906 6.93-6.906 3.858 0 6.93 3.088 6.93 6.906 0 3.842-3.072 6.947-6.93 6.947v0z"></path>
	<path fill="rgb(26, 25, 24)" class="path7 fill-color2" d="M632.843 757.445c0-9.699-6.529-18.268-16.499-23.331v-13.631h-0.672c0.229-1.483 0.672-2.875 0.672-4.506 0-12.116-7.356-21.987-16.384-21.987h-123.773c-9.028 0-16.368 9.871-16.368 21.987 0 1.63 0.434 3.023 0.672 4.506h-0.672v8.806h-10.74c-20.718 0-37.519 12.591-37.519 28.156 0 3.94 1.073 7.668 3.006 11.059-1.729 1.343-3.006 3.211-3.006 5.579 0 4.096 3.318 7.414 7.397 7.414h10.781c1.507 0.688 2.99 1.36 4.604 1.868 0.983 9.503 8.79 17.056 18.547 17.056 9.011 0 16.163-6.398 18.113-14.787h105.619c0 10.453 8.495 18.932 18.907 18.932 10.51 0 18.981-8.479 18.981-18.932 0-1.343-0.5-2.507-0.77-3.76l0.942-0.377h10.789c4.063 0 7.373-3.318 7.373-7.414 0-2.367-1.278-4.235-3.006-5.579 1.917-3.391 3.006-7.119 3.006-11.059v0zM452.889 788.419c-3.834 0-6.93-3.088-6.93-6.922 0-3.858 3.097-6.947 6.93-6.947 3.826 0 6.93 3.088 6.93 6.947 0 3.834-3.105 6.922-6.93 6.922v0zM595.528 792.58c-3.817 0-6.914-3.105-6.914-6.947 0-3.817 3.097-6.906 6.914-6.906 3.842 0 6.947 3.088 6.947 6.906 0 3.842-3.105 6.947-6.947 6.947v0z"></path>
	<path fill="rgb(26, 25, 24)" class="path8 fill-color2" d="M961.833 757.445c0-9.699-6.562-18.268-16.507-23.331v-13.631h-0.647c0.213-1.483 0.647-2.875 0.647-4.506 0-12.116-7.332-21.987-16.368-21.987h-123.798c-8.995 0-16.368 9.871-16.368 21.987 0 1.63 0.451 3.023 0.705 4.506h-0.705v8.806h-10.691c-20.75 0-37.569 12.591-37.569 28.156 0 3.94 1.090 7.668 3.047 11.059-1.729 1.343-3.047 3.211-3.047 5.579 0 4.096 3.351 7.414 7.414 7.414h10.797c1.458 0.688 2.974 1.36 4.596 1.868 0.991 9.503 8.798 17.056 18.538 17.056 8.995 0 16.163-6.398 18.096-14.787h105.619c0 10.453 8.479 18.932 18.924 18.932 10.486 0 18.981-8.479 18.981-18.932 0-1.343-0.516-2.507-0.786-3.76l0.958-0.377h10.789c4.080 0 7.373-3.318 7.373-7.414 0-2.367-1.262-4.235-2.99-5.579 1.901-3.391 2.99-7.119 2.99-11.059v0zM781.88 788.419c-3.817 0-6.955-3.088-6.955-6.922 0-3.858 3.138-6.947 6.955-6.947 3.842 0 6.914 3.088 6.914 6.947 0 3.834-3.072 6.922-6.914 6.922v0zM924.519 792.58c-3.801 0-6.922-3.105-6.922-6.947 0-3.817 3.121-6.906 6.922-6.906 3.875 0 6.93 3.088 6.93 6.906 0 3.842-3.056 6.947-6.93 6.947v0z"></path>
	<path fill="rgb(26, 25, 24)" class="path9 fill-color2" d="M740.535 798.249c0-7.397-5.997-13.378-13.386-13.378-7.381 0-13.378 5.98-13.378 13.378h-307.872c0-7.397-5.997-13.378-13.394-13.378-7.373 0-13.378 5.98-13.378 13.378h-301.58c0-7.397-6.005-13.378-13.394-13.378-7.373 0-13.378 5.98-13.378 13.378h-29.647v55.82c0 81.437 66.019 147.456 147.456 147.456h717.283c81.437 0 147.456-66.019 147.456-147.456v-55.82h-292.79z"></path>
	<path fill="rgb(10, 11, 9)" class="path10 fill-color1" d="M878.767 1018.466h-717.283c-88.080 0-159.744-71.655-159.744-159.744v-696.32c0-88.080 71.664-159.744 159.744-159.744h717.283c88.080 0 159.744 71.664 159.744 159.744v696.32c0 88.089-71.664 159.744-159.744 159.744v0zM161.483 27.234c-74.531 0-135.168 60.637-135.168 135.168v696.32c0 74.531 60.637 135.168 135.168 135.168h717.283c74.523 0 135.168-60.637 135.168-135.168v-696.32c0-74.531-60.645-135.168-135.168-135.168h-717.283z"></path>
</symbol>
<symbol id="icon-icon_photo" viewBox="0 0 1339 1024">
	<title>icon_photo</title>
	<path fill="#444444" class="path1" d="M1217.427 1006.876h-1111.569c-58.452 0-105.858-47.458-105.858-105.989v-635.912c0-58.534 47.403-106.013 105.858-106.013h223.425l124.607-125.036 0.121 0.359c19.336-20.982 46.789-34.285 77.512-34.285h264.676c29.054 0 55.302 11.698 74.428 30.638l0.214 0.207c0.121 0.124 0.279 0.231 0.414 0.414l127.291 127.703h218.885c58.49 0 105.893 47.479 105.893 106.013v635.915c0 58.527-47.403 105.985-105.896 105.985v0 0zM1270.418 264.975c0-29.243-23.779-53.025-52.988-53.025h-240.853l-142.798-143.3c-10.342-10.247-23.61-15.68-37.581-15.68h-264.676c-14.654 0-28.346 6.134-38.633 17.258l-60.763 65.777-1.321-3.91-79.609 79.854h-245.337c-29.171 0-52.957 23.783-52.957 53.025v635.915c0 29.188 23.786 53.043 52.957 53.043h1111.572c29.212 0 52.988-23.855 52.988-53.043v-635.915zM661.656 900.891c-190.045 0-344.051-154.279-344.051-344.526 0-190.236 154.009-344.415 344.051-344.415 190 0 344.037 154.179 344.037 344.415 0.003 190.247-154.037 344.526-344.037 344.526v0 0zM661.656 264.975c-160.55 0-291.125 130.704-291.125 291.39 0 160.745 130.575 291.58 291.125 291.58 160.509 0 291.139-130.835 291.139-291.58 0-160.689-130.631-291.39-291.139-291.39v0 0zM661.656 770.37c-118.046 0-213.721-95.835-213.721-213.998 0-118.136 95.675-213.901 213.721-213.901 118.053 0 213.679 95.766 213.679 213.901 0 118.163-95.626 213.998-213.679 213.998v0 0zM661.656 390.043c-91.631 0-166.211 74.615-166.211 166.329 0 91.749 74.58 166.45 166.211 166.45 91.614 0 166.204-74.701 166.204-166.45 0-91.718-74.59-166.329-166.204-166.329v0 0z"></path>
</symbol>
<symbol id="icon-icon_plantlist" viewBox="0 0 1425 1024">
	<title>icon_plantlist</title>
	<path fill="#444444" class="path1" d="M1194.592 55.134c-6.508 0-12.999 0-19.507 1.072-26.031 1.056-52.030 4.258-79.136 9.588-53.137 11.732-105.167 33.068-147.436 67.193-40.121 31.996-69.39 76.781-80.242 133.314-114.913 63.992-226.571 146.103-330.649 255.953 16.27-62.92 15.18-139.717-6.475-218.627-29.285-106.664-89.988-193.065-159.361-234.649-3.254-1.056-5.418-2.129-8.688-2.129-5.418 0-9.746 3.201-11.926 7.459-39.015 70.395-47.703 174.93-18.434 281.578 27.105 102.375 83.48 184.518 148.526 228.246-56.391 67.161-110.585 142.918-163.705 229.287 5.418-60.807-4.344-129.057-31.449-197.307-41.195-103.463-110.569-182.373-184.287-217.57-2.18 0-4.344-1.072-5.418-1.072-6.492 0-11.926 3.201-14.090 8.531-31.449 74.668-29.269 179.172 11.926 282.635 39.015 98.117 102.987 174.914 173.451 211.168-12.999 23.465-24.925 47.986-37.941 73.596-8.672 17.046 17.343 29.851 26.015 12.789 42.285-84.256 85.627-159.964 131.166-228.23 53.12 56.517 140.944 100.262 243.915 115.18 111.659 15.99 215.752-4.274 282.962-50.131 7.598-5.33 8.672-13.877 3.238-20.264-49.85-64.008-144.149-113.067-255.857-129.057-28.163-4.29-55.268-6.402-82.373-5.346-55.268 0-105.135 9.604-148.51 27.738 46.613-64.008 94.315-120.526 144.166-170.656 59.612 51.187 156.124 84.256 264.529 84.256 113.839 0 213.556-35.181 273.184-91.699 5.434-5.346 5.434-14.95 0-20.264-59.628-55.461-159.345-90.658-273.184-90.658v0c-61.792 0-119.24 10.676-169.123 28.795 67.21-55.461 136.584-102.391 207.064-141.846 69.39 50.131 134.436 67.193 191.885 62.936 58.571-4.274 109.495-30.94 150.706-65.065s73.718-74.668 96.479-109.866c22.745-33.052 36.867-59.719 42.285-69.322 4.344-4.274 5.434-11.732 2.164-17.062v0 0c-2.164-2.129-4.344-5.33-6.475-6.386-23.851-17.062-59.645-26.666-104.077-32.012-17.36-1.024-35.793-2.097-55.317-2.097v0 0zM1213.026 83.929c11.909 0 22.778 1.072 33.597 2.145 34.703 3.201 63.972 11.732 81.316 21.336-7.598 12.789-18.417 33.052-35.777 58.662-22.761 33.052-53.12 72.523-91.061 103.463-39.015 31.996-83.48 55.445-134.436 58.646-49.85 4.274-106.241-10.66-170.213-55.461 9.778-51.187 34.687-89.586 70.48-118.381 36.851-29.867 85.627-50.115 135.51-60.791 36.867-7.475 75.898-10.676 110.585-9.62v0 0zM370.696 104.208c55.284 39.455 106.241 113.051 132.256 206.894 26.031 93.859 18.417 183.445-9.762 245.309-55.268-40.511-107.331-114.123-133.346-207.967-24.925-93.875-18.434-182.389 10.852-244.236v0 0zM104.004 433.757c59.628 34.125 119.24 101.318 155.017 191.977s37.941 180.26 17.343 244.236c-60.718-33.052-119.257-101.318-155.034-191.977-35.761-90.658-39.015-179.188-17.327-244.236v0 0zM839.019 435.886c98.643 0 184.287 29.851 238.497 72.523-54.211 42.656-139.854 72.507-238.497 72.507s-184.287-29.851-238.481-72.507c54.194-42.672 139.838-72.523 238.481-72.523v0 0zM579.908 696.128c24.958 0 50.957 2.129 76.956 5.33 97.585 14.934 177.811 56.517 225.498 105.592-59.628 35.181-149.6 52.26-247.153 38.367-97.585-14.918-177.795-56.517-225.498-106.648 43.375-25.578 102.987-41.584 170.197-42.64v0 0z"></path>
</symbol>
<symbol id="icon-icon_port" viewBox="0 0 1040 1024">
	<title>icon_port</title>
	<path fill="rgb(255, 255, 255)" class="path1 fill-color9" d="M1026.1 862.335c0 81.445-66.019 147.456-147.456 147.456h-717.3c-81.437 0-147.456-66.011-147.456-147.456v-696.32c0-81.437 66.019-147.456 147.456-147.456h717.3c81.437 0 147.456 66.019 147.456 147.456v696.32z"></path>
	<path fill="rgb(10, 11, 9)" class="path2 fill-color1" d="M26.405 675.549h983.876v2.048h-983.876v-2.048z"></path>
	<path fill="rgb(10, 11, 9)" class="path3 fill-color1" d="M26.405 347.443h983.876v2.048h-983.876v-2.048z"></path>
	<path fill="rgb(10, 11, 9)" class="path4 fill-color1" d="M681.38 20.574h2.048v983.884h-2.048v-983.884z"></path>
	<path fill="rgb(10, 11, 9)" class="path5 fill-color1" d="M353.233 20.574h2.048v983.884h-2.048v-983.884z"></path>
	<path fill="rgb(26, 25, 24)" class="path6 fill-color2" d="M26.176 765.981h232.915v237.167c0 0-150.962 12.968-206.594-42.656-55.615-55.624-26.321-194.511-26.321-194.511z"></path>
	<path fill="rgb(83, 186, 169)" class="path7 fill-color5" d="M259.091 767.291h757.76c0 0 9.249 143.737-19.628 180.085-26.321 33.145-27.14 37.888-83.091 54.788-48.333 14.59-655.041 2.294-655.041 2.294z"></path>
	<path fill="rgb(26, 25, 24)" class="path8 fill-color2" d="M366.914 534.655c-0.369 14.033-10.961 24.781-24.797 25.149-13.828-0.369-24.404-11.117-24.773-25.149l-0.205-1.868c0.123-0.721 0.205-1.458 0.205-2.253v-219.873c20.259-10.83 40.55-21.635 60.817-32.457 16.802-8.978 8.659-35.381-9.437-35.381h-455.008c-5.808 0-10.207 2.22-13.238 5.554-3.293 3.064-5.472 7.528-5.472 13.427v116.056c0 10.346 8.503 18.989 18.711 18.989h52.462c-10.404 91.111-20.799 182.206-31.236 273.318-2.99 26.501-6.029 52.994-9.052 79.479-1.18 10.297 9.388 18.989 18.702 18.989 11.108 0 17.555-8.708 18.743-18.981 0.811-7.266 1.647-14.533 2.474-21.774 33.104-29.45 66.208-58.86 99.312-88.302 32.883 29.229 65.757 58.458 98.64 87.679l0.688 0.623c0.819 7.242 1.663 14.508 2.482 21.774 1.188 10.273 7.627 18.981 18.702 18.981 9.331 0 19.907-8.692 18.719-18.981-11.117-97.436-22.266-194.879-33.391-292.315-2.466-21.545-4.907-43.106-7.389-64.668l0.418-0.197c44.319-23.65 88.621-47.292 132.923-70.926v208.994l0.164 1.868c-0.131 0.696-0.18 1.466-0.164 2.253 0.655 24.65 18.948 43.876 42.861 45.67 0.745 0.147 1.524 0.205 2.343 0.188 0.844 0.016 1.614-0.041 2.351-0.188 23.937-1.819 42.205-21.021 42.861-45.67 0.369-13.378-20.062-13.337-20.414-0.008v0zM63.859 396.849h27.967c-8.897 7.971-17.793 15.933-26.706 23.921-8.913-7.987-17.809-15.95-26.69-23.921h25.428zM1.616 414.421c11.764 10.543 23.536 21.086 35.283 31.638-14.434 12.927-28.877 25.887-43.327 38.838 1.057-9.191 2.097-18.366 3.146-27.558 1.622-14.295 3.269-28.615 4.899-42.918v0zM65.121 471.331c22.004 19.718 44.032 39.436 66.036 59.154-22.004 19.579-44.032 39.15-66.036 58.712-21.996-19.562-44.016-39.133-66.028-58.712 22.012-19.718 44.032-39.436 66.028-59.154v0zM93.334 446.058c11.788-10.551 23.552-21.094 35.291-31.638 2.703 23.495 5.374 46.965 8.061 70.459-14.459-12.935-28.91-25.895-43.352-38.822v0zM-27.777 671.789c3.973-34.742 7.938-69.485 11.895-104.227 17.564 15.606 35.135 31.212 52.666 46.825-21.52 19.128-43.057 38.281-64.561 57.401v0zM93.457 614.388c17.555-15.614 35.119-31.22 52.691-46.825 3.883 34.202 7.791 68.403 11.706 102.605l0.197 1.63c-21.537-19.128-43.074-38.281-64.594-57.41v0zM146.598 358.879h-214.163v-78.094h360.53c-48.8 26.034-97.599 52.068-146.366 78.094v0z"></path>
	<path fill="rgb(26, 25, 24)" class="path9 fill-color2" d="M330.558 700.731v89.022c0 55.509 12.239 84.124 67.74 84.124h143.712c55.501 0 67.74-28.615 67.74-84.124v-89.022z"></path>
	<path fill="rgb(10, 11, 9)" class="path10 fill-color1" d="M878.627 1016.746h-717.283c-88.080 0-159.744-71.664-159.744-159.744v-696.32c0-88.089 71.664-159.744 159.744-159.744h717.283c88.080 0 159.744 71.655 159.744 159.744v696.32c0 88.080-71.664 159.744-159.744 159.744v0zM161.344 25.514c-74.523 0-135.168 60.637-135.168 135.168v696.32c0 74.531 60.645 135.168 135.168 135.168h717.283c74.531 0 135.168-60.637 135.168-135.168v-696.32c0-74.531-60.637-135.168-135.168-135.168h-717.283z"></path>
	<path fill="rgb(26, 25, 24)" class="path11 fill-color2" d="M341.265 623.243h25.338v34.832h-25.338v-34.832z"></path>
	<path fill="rgb(26, 25, 24)" class="path12 fill-color2" d="M370.322 623.243h25.338v34.832h-25.338v-34.832z"></path>
	<path fill="rgb(26, 25, 24)" class="path13 fill-color2" d="M399.379 623.243h25.338v34.832h-25.338v-34.832z"></path>
	<path fill="rgb(26, 25, 24)" class="path14 fill-color2" d="M428.436 623.243h25.338v34.832h-25.338v-34.832z"></path>
	<path fill="rgb(26, 25, 24)" class="path15 fill-color2" d="M457.493 623.243h25.338v34.832h-25.338v-34.832z"></path>
	<path fill="rgb(26, 25, 24)" class="path16 fill-color2" d="M486.55 623.243h25.338v34.832h-25.338v-34.832z"></path>
	<path fill="rgb(26, 25, 24)" class="path17 fill-color2" d="M515.599 623.243h25.338v34.832h-25.338v-34.832z"></path>
	<path fill="rgb(26, 25, 24)" class="path18 fill-color2" d="M544.656 623.243h25.338v34.832h-25.338v-34.832z"></path>
	<path fill="rgb(26, 25, 24)" class="path19 fill-color2" d="M573.713 623.243h25.338v34.832h-25.338v-34.832z"></path>
	<path fill="rgb(26, 25, 24)" class="path20 fill-color2" d="M341.265 663.54h25.338v34.832h-25.338v-34.832z"></path>
	<path fill="rgb(26, 25, 24)" class="path21 fill-color2" d="M370.322 663.54h25.338v34.832h-25.338v-34.832z"></path>
	<path fill="rgb(26, 25, 24)" class="path22 fill-color2" d="M399.379 663.54h25.338v34.832h-25.338v-34.832z"></path>
	<path fill="rgb(26, 25, 24)" class="path23 fill-color2" d="M428.436 663.54h25.338v34.832h-25.338v-34.832z"></path>
	<path fill="rgb(26, 25, 24)" class="path24 fill-color2" d="M457.493 663.54h25.338v34.832h-25.338v-34.832z"></path>
	<path fill="rgb(26, 25, 24)" class="path25 fill-color2" d="M486.55 663.54h25.338v34.832h-25.338v-34.832z"></path>
	<path fill="rgb(26, 25, 24)" class="path26 fill-color2" d="M515.599 663.54h25.338v34.832h-25.338v-34.832z"></path>
	<path fill="rgb(26, 25, 24)" class="path27 fill-color2" d="M544.656 663.54h25.338v34.832h-25.338v-34.832z"></path>
	<path fill="rgb(26, 25, 24)" class="path28 fill-color2" d="M573.713 663.54h25.338v34.832h-25.338v-34.832z"></path>
</symbol>
<symbol id="icon-icon_rail" viewBox="0 0 1040 1024">
	<title>icon_rail</title>
	<path fill="rgb(255, 255, 255)" class="path1 fill-color9" d="M1022.97 862.843c0 81.445-66.011 147.456-147.456 147.456h-717.292c-81.445 0-147.456-66.011-147.456-147.456v-696.32c0-81.437 66.011-147.456 147.456-147.456h717.292c81.445 0 147.456 66.019 147.456 147.456v696.32z"></path>
	<path fill="rgb(10, 11, 9)" class="path2 fill-color1" d="M28.158 677.728h983.867v2.048h-983.867v-2.048z"></path>
	<path fill="rgb(10, 11, 9)" class="path3 fill-color1" d="M28.158 349.614h983.867v2.048h-983.867v-2.048z"></path>
	<path fill="rgb(10, 11, 9)" class="path4 fill-color1" d="M683.15 22.745h2.048v983.884h-2.048v-983.884z"></path>
	<path fill="rgb(10, 11, 9)" class="path5 fill-color1" d="M355.003 22.745h2.048v983.884h-2.048v-983.884z"></path>
	<path fill="rgb(26, 25, 24)" class="path6 fill-color2" d="M183.782 429.904c-17.965 0-33.079 11.919-38.601 28.41v246.612h0.524c1.761 7.365 8.11 12.845 15.712 12.845l18.178 0.016c0 7.094 5.612 12.853 12.542 12.853h151.134c6.947 0 12.542-5.759 12.542-12.853v-0.016h18.194c7.602 0 13.943-5.48 15.679-12.845h0.549v-245.367c-5.521-16.499-20.611-29.655-38.625-29.655z"></path>
	<path fill="rgb(255, 255, 255)" class="path7 fill-color9" d="M208.825 661.344c0 9.609-7.791 17.408-17.408 17.408s-17.408-7.799-17.408-17.408c0-9.617 7.791-17.408 17.408-17.408s17.408 7.791 17.408 17.408z"></path>
	<path fill="rgb(255, 255, 255)" class="path8 fill-color9" d="M361.401 661.344c0 9.609-7.791 17.408-17.408 17.408s-17.408-7.799-17.408-17.408c0-9.617 7.791-17.408 17.408-17.408s17.408 7.791 17.408 17.408z"></path>
	<path fill="rgb(255, 255, 255)" class="path9 fill-color9" d="M285.117 592.72c0 9.609-7.791 17.408-17.408 17.408s-17.408-7.799-17.408-17.408c0-9.617 7.791-17.408 17.408-17.408s17.408 7.791 17.408 17.408z"></path>
	<path fill="rgb(255, 255, 255)" class="path10 fill-color9" d="M285.117 549.712c0 9.609-7.791 17.408-17.408 17.408s-17.408-7.799-17.408-17.408c0-9.617 7.791-17.408 17.408-17.408s17.408 7.791 17.408 17.408z"></path>
	<path fill="rgb(26, 25, 24)" class="path11 fill-color2" d="M186.846 722.391h15.041v19.98h-15.041v-19.98z"></path>
	<path fill="rgb(26, 25, 24)" class="path12 fill-color2" d="M336.473 722.391h15.041v19.98h-15.041v-19.98z"></path>
	<path fill="rgb(26, 25, 24)" class="path13 fill-color2" d="M961.563 797.299l-48.382-45.711h-57.278v-11.428h-22.872v11.428h-127.836v-11.428h-22.864v11.428h-57.262l-48.431 45.711h-114.786l-48.382-45.711h-57.278v-11.428h-22.864v11.428h-127.844v-11.428h-22.864v11.428h-57.262l-48.431 45.711h-63.267v55.828c0 81.437 66.011 147.456 147.456 147.456h717.275c81.445 0 147.456-66.019 147.456-147.456v-55.828h-64.283z"></path>
	<path fill="rgb(10, 11, 9)" class="path14 fill-color1" d="M878.726 1022.587h-717.275c-88.080 0-159.744-71.655-159.744-159.744v-696.32c0-88.080 71.664-159.744 159.744-159.744h717.275c88.080 0 159.744 71.664 159.744 159.744v696.32c0 88.089-71.664 159.744-159.744 159.744v0zM161.45 31.355c-74.531 0-135.168 60.637-135.168 135.168v696.32c0 74.531 60.637 135.168 135.168 135.168h717.275c74.531 0 135.168-60.637 135.168-135.168v-696.32c0-74.531-60.637-135.168-135.168-135.168h-717.275z"></path>
</symbol>
<symbol id="icon-icon_reflective" viewBox="0 0 1040 1024">
	<title>icon_reflective</title>
	<path fill="rgb(255, 255, 255)" class="path1 fill-color9" d="M1026.453 860.164c0 81.879-65.446 148.259-146.178 148.259h-711.098c-80.74 0-146.186-66.38-146.186-148.259v-700.105c0-81.879 65.446-148.251 146.186-148.251h711.098c80.732 0 146.178 66.372 146.178 148.251v700.105z"></path>
	<path fill="rgb(10, 11, 9)" class="path2 fill-color1" d="M35.761 674.951h975.38v2.048h-975.38v-2.048z"></path>
	<path fill="rgb(10, 11, 9)" class="path3 fill-color1" d="M35.761 345.059h975.38v2.048h-975.38v-2.048z"></path>
	<path fill="rgb(10, 11, 9)" class="path4 fill-color1" d="M685.092 16.413h2.048v989.225h-2.048v-989.225z"></path>
	<path fill="rgb(10, 11, 9)" class="path5 fill-color1" d="M359.78 16.413h2.048v989.225h-2.048v-989.225z"></path>
	<path fill="rgb(10, 11, 9)" class="path6 fill-color1" d="M874 1021.612h-711.098c-87.384 0-158.466-72.016-158.466-160.547v-700.088c0-88.531 71.082-160.547 158.466-160.547h711.098c87.384 0 158.474 72.016 158.474 160.547v700.088c0 88.531-71.090 160.547-158.474 160.547v0zM162.901 25.006c-73.826 0-133.89 60.998-133.89 135.971v700.088c0 74.973 60.064 135.971 133.89 135.971h711.098c73.834 0 133.898-60.998 133.898-135.971v-700.088c0-74.973-60.064-135.971-133.898-135.971h-711.098z"></path>
	<path fill="rgb(255, 255, 255)" class="path7 fill-color9" d="M877.686 715.821h-724.853z"></path>
	<path fill="rgb(26, 25, 24)" class="path8 fill-color2" d="M877.686 756.781h-724.853c-22.626 0-40.96-18.334-40.96-40.96s18.334-40.96 40.96-40.96h724.853c22.626 0 40.96 18.334 40.96 40.96s-18.334 40.96-40.96 40.96z"></path>
	<path fill="rgb(255, 255, 255)" class="path9 fill-color9" d="M124.636 809.562l-28.959-28.959 145.408-145.408 28.959 28.959-145.408 145.408z"></path>
	<path fill="rgb(255, 255, 255)" class="path10 fill-color9" d="M233.041 809.562l-28.959-28.959 145.416-145.408 28.959 28.959-145.416 145.408z"></path>
	<path fill="rgb(255, 255, 255)" class="path11 fill-color9" d="M341.438 809.562l-28.959-28.959 145.408-145.408 28.959 28.959-145.408 145.408z"></path>
	<path fill="rgb(255, 255, 255)" class="path12 fill-color9" d="M449.842 809.562l-28.959-28.959 145.408-145.408 28.959 28.959-145.408 145.408z"></path>
	<path fill="rgb(255, 255, 255)" class="path13 fill-color9" d="M558.239 809.562l-28.959-28.959 145.416-145.408 28.959 28.959-145.416 145.408z"></path>
	<path fill="rgb(255, 255, 255)" class="path14 fill-color9" d="M666.644 809.562l-28.967-28.959 145.416-145.408 28.967 28.959-145.416 145.408z"></path>
	<path fill="rgb(255, 255, 255)" class="path15 fill-color9" d="M775.048 809.562l-28.959-28.959 145.408-145.408 28.959 28.959-145.408 145.408z"></path>
</symbol>
<symbol id="icon-icon_share" viewBox="0 0 1024 1024">
	<title>icon_share</title>
	<path fill="currentColor" class="path1 fill-color9" d="M512 0c-283.307 0-512 228.693-512 512s228.693 512 512 512c283.307 0 512-228.693 512-512s-228.693-512-512-512v0 0zM433.493 512c0 7.964-1.138 14.791-3.413 21.618l138.809 84.196c14.791-12.516 34.133-21.618 55.751-21.618 47.787 0 85.333 38.684 85.333 85.333s-37.547 85.333-85.333 85.333c-46.649 0-85.333-38.684-85.333-85.333 0-7.964 1.138-14.791 3.413-21.618l-138.809-85.333c-14.791 12.516-34.133 20.48-55.751 20.48-46.649 0-85.333-37.547-85.333-85.333 0-46.649 38.684-85.333 85.333-85.333 21.618 0 40.96 7.964 55.751 20.48l138.809-85.333c-2.276-6.827-3.413-13.653-3.413-21.618 0-46.649 38.684-85.333 85.333-85.333 47.787 0 85.333 38.684 85.333 85.333 0 47.787-37.547 85.333-85.333 85.333-21.618 0-40.96-7.964-55.751-21.618l-138.809 85.333c2.276 10.24 3.413 17.067 3.413 25.031v0z"></path>
</symbol>
<symbol id="icon-icon_soil" viewBox="0 0 902 1024">
	<title>icon_soil</title>
	<path fill="#444444" class="path1" d="M780.211 207.424c-11.624-16.118-30.521-26.657-51.925-26.657-35.342 0-64.003 28.633-64.003 63.975 0 15.222 5.341 29.181 14.209 40.157l-0.565 0.565c60.499 60.493 94.003 140.991 94.003 226.614 0 176.493-143.498 319.992-320.003 319.992v-64.003l-128 128 128 127.994v-63.992c247 0 447.997-200.997 447.997-447.992 0-114.057-42.405-221.5-119.714-304.654z"></path>
	<path fill="#444444" class="path2" d="M579.927 128.089l-128-128v63.997c-246.994 0-447.992 200.997-447.992 447.992 0 119.874 46.739 232.492 131.736 317.23 10.661 7.899 24.764 11.657 39.023 11.657 35.336 0 63.997-28.661 63.997-63.997 0-14.358-4.804-27.576-12.786-38.259l0.022-0.022c-0.055-0.055-0.122-0.138-0.177-0.199-3.078-4.057-6.581-7.799-10.522-11.015-53.735-59.060-83.298-134.963-83.298-215.394 0-176.499 143.498-319.997 319.997-319.997v64.003l128-127.994z"></path>
	<path fill="#444444" class="path3" d="M355.007 558.257l244.825-80.237c22.212 2.098 64.54 35.895 89.177 4.456l-29.541-90.095c-38.48-10.777-52.556 41.497-69.217 56.381l-244.841 80.259c-43.883 10.838-23.165-43.988-52.54-34.384-85.756 28.102-107.243 94.656-101.968 101.215-0.371 8.441 56.353 49.384 142.131 21.2 29.331-9.637-19.821-41.558 21.974-58.794v0zM624.845 453.599c-3.293-10.085 2.209-20.923 12.26-24.238 10.102-3.304 20.939 2.197 24.244 12.271 3.321 10.085-2.181 20.928-12.26 24.244-10.079 3.299-20.939-2.197-24.244-12.277v0z"></path>
</symbol>
<symbol id="icon-icon_street" viewBox="0 0 1040 1024">
	<title>icon_street</title>
	<path fill="rgb(255, 255, 255)" class="path1 fill-color9" d="M1032.416 861.942c0 81.437-66.011 147.456-147.456 147.456h-717.275c-81.445 0-147.456-66.019-147.456-147.456v-696.32c0-81.437 66.011-147.456 147.456-147.456h717.275c81.445 0 147.456 66.019 147.456 147.456v696.32z"></path>
	<path fill="rgb(10, 11, 9)" class="path2 fill-color1" d="M27.143 677.728h983.867v2.048h-983.867v-2.048z"></path>
	<path fill="rgb(10, 11, 9)" class="path3 fill-color1" d="M27.143 349.614h983.867v2.048h-983.867v-2.048z"></path>
	<path fill="rgb(10, 11, 9)" class="path4 fill-color1" d="M682.109 22.745h2.048v983.884h-2.048v-983.884z"></path>
	<path fill="rgb(10, 11, 9)" class="path5 fill-color1" d="M353.971 22.745h2.048v983.884h-2.048v-983.884z"></path>
	<path fill="rgb(26, 25, 24)" class="path6 fill-color2" d="M1014.598 807.023v-507.388h-62.153v477.741h-72.942v-24.699c0-2.425-1.966-4.383-4.383-4.383h-3.809v-220.865c0.516-0.598 0.852-1.368 0.852-2.212 0-1.245-0.688-2.318-1.696-2.908-0.967-1.556-2.687-2.605-4.661-2.605-1.982 0-3.695 1.049-4.669 2.605-1.008 0.59-1.679 1.663-1.679 2.908 0 0.844 0.319 1.614 0.827 2.212v8.888l-0.827-0.082c-3.023-36.151-13.648-62.079-31.629-77.038-20.693-17.211-44.704-14.664-52.609-13.836l-1.778 0.18-0.958-0.033-0.188 0.066-1.319-0.262h-11.805c-1.155-0.958-2.638-1.532-4.26-1.532h-11.321c-3.736 0-6.742 3.015-6.742 6.734 0 1.81 0.705 3.441 1.876 4.661 0.172 2.187 1.999 3.908 4.235 3.908h14.385c2.367 0 4.293-1.909 4.293-4.276v-0.066l0.606 0.066h2.163c1.18 0 2.122-0.958 2.122-2.146l-0.033-0.303h4.481c1.843 0 3.334-1.425 3.49-3.228l1.139-0.106c7.52-0.795 30.368-3.211 49.857 13.001 17.392 14.442 27.615 39.887 30.45 75.579-1.106 0.991-1.81 2.4-1.81 3.981v0.926c0 2.957 2.4 5.358 5.358 5.358l0.827-0.090v200.516h-4.35c-2.425 0-4.399 1.958-4.399 4.383v24.699h-0.131v29.647h-286.573v-29.647h-101.040v29.647h-286.72v-29.647h-0.033v-24.699c0-2.425-1.966-4.383-4.399-4.383h-4.35v-200.516l0.836 0.090c2.957 0 5.358-2.4 5.358-5.358v-0.926c0-1.581-0.705-2.99-1.81-3.981 2.834-35.693 13.058-61.137 30.45-75.579 19.489-16.212 42.336-13.795 49.857-13.001l1.139 0.106c0.156 1.802 1.647 3.228 3.482 3.228h4.465l-0.016 0.303c0 1.188 0.95 2.146 2.13 2.146h2.163l0.606-0.098v0.098c0 2.367 1.917 4.276 4.284 4.276h14.385c2.245 0 4.063-1.72 4.243-3.908 1.163-1.221 1.868-2.851 1.868-4.661 0-3.719-3.006-6.734-6.734-6.734h-11.33c-1.614 0-3.105 0.573-4.252 1.532h-11.813l-1.311 0.262-0.188-0.066-0.958 0.033-1.778-0.18c-7.905-0.827-31.924-3.375-52.609 13.836-17.99 14.959-28.606 40.886-31.629 77.038l-0.836 0.082v-8.888c0.508-0.598 0.836-1.368 0.836-2.212 0-1.245-0.672-2.318-1.679-2.908-0.983-1.556-2.695-2.605-4.678-2.605-1.966 0-3.695 1.049-4.653 2.605-1.008 0.59-1.696 1.663-1.696 2.908 0 0.844 0.336 1.614 0.844 2.212v220.865h-3.801c-2.425 0-4.391 1.958-4.391 4.383v24.699h-73.040v-477.741h-62.145v507.388h3.17v55.82c0 81.445 66.011 147.456 147.456 147.456h717.275c81.445 0 147.456-66.011 147.456-147.456v-55.82h-14.647z"></path>
	<path fill="rgb(10, 11, 9)" class="path7 fill-color1" d="M878.644 1022.587h-717.3c-88.080 0-159.744-71.655-159.744-159.744v-696.32c0-88.080 71.664-159.744 159.744-159.744h717.3c88.080 0 159.744 71.664 159.744 159.744v696.32c0 88.089-71.664 159.744-159.744 159.744v0zM161.344 31.355c-74.531 0-135.168 60.637-135.168 135.168v696.32c0 74.531 60.637 135.168 135.168 135.168h717.3c74.539 0 135.168-60.637 135.168-135.168v-696.32c0-74.531-60.629-135.168-135.168-135.168h-717.3z"></path>
	<path fill="rgb(26, 25, 24)" class="path8 fill-color2" d="M744.901 756.732c0-8.331-2.695-15.86-6.996-21.25v-19.005c0-13.607-11.985-24.609-26.78-24.609h-84.115c-14.795 0-26.796 11.002-26.796 24.609v19.333h0.459c-4.129 5.382-6.717 12.73-6.717 20.922 0 6.758 1.802 12.894 4.751 17.875-2.736 1.393-4.751 5.087-4.751 9.601 0 5.661 3.138 10.265 6.98 10.265h7.594l-0.066 0.475v12.034c0 4.112 3.326 7.455 7.455 7.455 4.080 0 7.447-3.342 7.447-7.455v-12.034l-0.131-0.475h95.068l-0.090 0.475v12.034c0 4.112 3.342 7.455 7.455 7.455 4.096 0 7.455-3.342 7.455-7.455v-12.034l-0.106-0.475h4.907c3.842 0 6.98-4.604 6.98-10.265 0-4.514-1.999-8.208-4.76-9.601 2.933-4.981 4.76-11.117 4.76-17.875v0zM615.918 763.097c-3.514 0-6.332-2.859-6.332-6.341 0-3.514 2.818-6.341 6.332-6.341 3.473 0 6.324 2.826 6.324 6.341 0 3.482-2.851 6.341-6.324 6.341v0zM722.742 763.097c-3.506 0-6.341-2.859-6.341-6.341 0-3.514 2.834-6.341 6.341-6.341 3.498 0 6.349 2.826 6.349 6.341 0 3.482-2.851 6.341-6.349 6.341v0z"></path>
	<path fill="rgb(255, 255, 255)" class="path9 fill-color9" d="M626.74 757.723c0-5.972-4.85-10.813-10.822-10.813-5.98 0-10.813 4.841-10.813 10.813 0 5.98 4.833 10.822 10.813 10.822 5.972 0 10.822-4.841 10.822-10.822z"></path>
	<path fill="rgb(255, 255, 255)" class="path10 fill-color9" d="M733.457 757.723c0-5.972-4.841-10.813-10.813-10.813-5.98 0-10.822 4.841-10.822 10.813 0 5.98 4.841 10.822 10.822 10.822 5.972 0 10.813-4.841 10.813-10.822z"></path>
	<path fill="rgb(26, 25, 24)" class="path11 fill-color2" d="M915.393 686.404c4.678 0 8.462 3.777 8.462 8.446 0 4.678-3.785 8.462-8.462 8.462-4.669 0-8.446-3.785-8.446-8.462 0-4.669 3.777-8.446 8.446-8.446z"></path>
	<path fill="rgb(26, 25, 24)" class="path12 fill-color2" d="M921.029 706.13h-11.264c-5.169 0-9.396 4.227-9.396 9.396v21.602c0 3.817 2.335 7.135 5.636 8.585v27.099c0 4.137 3.391 7.512 7.52 7.512h3.76c4.129 0 7.504-3.375 7.504-7.512v-27.099c3.31-1.45 5.628-4.768 5.628-8.585v-21.602c0-5.169-4.227-9.396-9.388-9.396z"></path>
</symbol>
<symbol id="icon-icon_table" viewBox="0 0 1170 1024">
	<title>icon_table</title>
	<path fill="#444444" class="path1" d="M1170.286 1012.87h-1170.286v-1012.87h1170.286v1012.87zM46.811 972.355h1076.663v-931.84h-1076.663v931.84z"></path>
	<path fill="#444444" class="path2" d="M374.491 20.257h46.811v972.355h-46.811v-972.355z"></path>
	<path fill="#444444" class="path3" d="M748.983 20.257h46.811v972.355h-46.811v-972.355z"></path>
	<path fill="#444444" class="path4" d="M23.406 324.118h1123.474v40.515h-1123.474v-40.515z"></path>
	<path fill="#444444" class="path5" d="M23.406 648.237h1123.474v40.515h-1123.474v-40.515z"></path>
</symbol>
<symbol id="icon-icon_text" viewBox="0 0 826 1024">
	<title>icon_text</title>
	<path fill="#444444" class="path1" d="M776.617 1023.486h-707.608c-25.159 0-45.633-20.548-45.633-45.8v-926.142c0-25.263 20.473-45.824 45.633-45.824h707.608c25.159 0 45.633 20.56 45.633 45.824v926.154c0 25.251-20.473 45.788-45.633 45.788v0zM69.009 41.623c-5.437 0-9.861 4.452-9.861 9.921v926.154c0 5.457 4.424 9.897 9.861 9.897h707.608c5.437 0 9.861-4.44 9.861-9.897v-926.154c0-5.469-4.424-9.921-9.861-9.921h-707.608z"></path>
	<path fill="#444444" class="path2" d="M371.469 273.601h-159.827c-8.371 0-15.155-6.798-15.155-15.223 0-8.341 6.773-15.199 15.155-15.199h159.827c8.335 0 15.131 6.845 15.131 15.199 0 8.425-6.785 15.223-15.131 15.223v0z"></path>
	<path fill="#444444" class="path3" d="M633.996 395.215h-422.354c-8.371 0-15.155-6.81-15.155-15.199 0-8.401 6.773-15.199 15.155-15.199h422.354c8.359 0 15.119 6.786 15.119 15.199 0 8.389-6.761 15.199-15.119 15.199v0z"></path>
	<path fill="#444444" class="path4" d="M633.996 496.568h-422.354c-8.371 0-15.155-6.81-15.155-15.199 0-8.413 6.773-15.211 15.155-15.211h422.354c8.359 0 15.119 6.798 15.119 15.211 0 8.389-6.761 15.199-15.119 15.199v0z"></path>
	<path fill="#444444" class="path5" d="M633.996 597.945h-422.354c-8.371 0-15.155-6.833-15.155-15.223 0-8.437 6.773-15.211 15.155-15.211h422.354c8.359 0 15.119 6.774 15.119 15.211 0 8.389-6.761 15.223-15.119 15.223v0z"></path>
	<path fill="#444444" class="path6" d="M633.996 699.286h-422.354c-8.371 0-15.155-6.833-15.155-15.211s6.773-15.211 15.155-15.211h422.354c8.359 0 15.119 6.833 15.119 15.211s-6.761 15.211-15.119 15.211v0z"></path>
</symbol>
<symbol id="icon-icon_toolbox" viewBox="0 0 1195 1024">
	<title>icon_toolbox</title>
	<path fill="currentColor" class="path1 fill-color6" d="M1130.667 1024h-1066.667c-36.267 0-64-28.139-64-64.937v-757.593c0-36.797 27.733-64.937 64-64.937h1066.667c36.267 0 64 28.139 64 64.937v757.593c0 36.797-27.733 64.937-64 64.937v0zM64 179.824c-12.8 0-21.333 8.658-21.333 21.646v757.593c0 12.987 8.533 21.646 21.333 21.646h1066.667c12.8 0 21.333-8.658 21.333-21.646v-757.593c0-12.987-8.533-21.646-21.333-21.646h-1066.667z"></path>
	<path fill="currentColor" class="path2 fill-color6" d="M785.067 136.533h-42.667c0-50.062-38.4-91.022-85.333-91.022h-85.333c-46.933 0-85.333 40.96-85.333 91.022h-42.667c0-75.093 57.6-136.533 128-136.533h85.333c70.4 0 128 61.44 128 136.533v0z"></path>
	<path fill="currentColor" class="path3 fill-color6" d="M846.391 869.547c-26.034-54.613-56.407-105.813-88.515-151.893 112.814-110.933 47.729-226.987-3.471-287.573-85.912-102.4-327.159-141.653-399.186-151.040h-0.868c-4.339 0-7.81 3.413-7.81 7.68-5.207 69.12-16.488 303.787 76.366 413.867 48.597 58.027 100.664 89.6 156.203 94.72 5.207 0.853 10.414 0.853 15.62 0.853v0c46.861 0 94.59-18.773 140.583-57.173 1.736-0.853 2.603-2.56 4.339-3.413 30.373 44.373 59.878 93.013 84.176 144.213 2.603 4.267 6.942 7.68 12.149 7.68 1.736 0 3.471 0 5.207-0.853 3.471-1.707 6.075-4.267 6.942-6.827-0.868-3.413-0.868-6.827-1.736-10.24v0zM717.089 719.36c-41.654 34.133-83.308 51.2-124.095 51.2-4.339 0-8.678 0-13.017-0.853-47.729-4.267-94.59-33.28-137.98-85.333-40.786-47.787-65.085-133.12-72.027-246.613-2.603-48.64-1.736-93.013 0-121.173l0.868-9.387 9.546 0.853c62.481 8.533 274.224 43.52 354.061 139.093 45.993 54.613 65.085 106.667 59.010 154.453-4.339 33.28-21.695 65.707-50.332 95.573-91.986-125.44-191.783-213.333-228.231-243.2-2.603-1.707-5.207-2.56-7.81-2.56-4.339 0-7.81 1.707-10.414 5.12-4.339 5.12-3.471 12.8 1.736 17.067 36.447 30.72 135.376 117.76 225.627 241.493-3.471 0.853-5.207 2.56-6.942 4.267v0z"></path>
	<path fill="currentColor" class="path4 fill-color6" d="M715.354 657.92c-1.736 7.68-9.546 11.947-16.488 9.387l-11.281-3.413 12.149 3.413h-0.868c-6.075-1.707-10.414-8.533-8.678-14.507 5.207-24.747 13.017-86.187-13.885-154.453-2.603-5.973 0.868-13.653 6.942-16.213v0c6.942-3.413 14.753 0 17.356 6.827 28.637 75.093 20.827 141.653 14.753 168.96v0z"></path>
	<path fill="currentColor" class="path5 fill-color6" d="M534.852 570.027c-11.281 0-23.431-0.853-35.58-3.413-7.81-1.707-12.149-9.387-9.546-16.213v0c1.736-5.973 8.678-10.24 14.753-8.533 32.108 6.827 59.010 0.853 73.763-3.413 6.075-1.707 13.017 0.853 15.62 6.827v0c3.471 6.827-0.868 15.36-7.81 17.92-12.149 2.56-29.505 6.827-51.2 6.827v0z"></path>
</symbol>
<symbol id="icon-icon_water" viewBox="0 0 902 1024">
	<title>icon_water</title>
	<path fill="#444444" class="path1" d="M779.159 207.435c-11.618-16.14-30.521-26.679-51.92-26.679-35.336 0-63.992 28.644-63.992 63.997 0 15.211 5.336 29.17 14.192 40.146l-0.559 0.576c60.499 60.471 93.998 140.98 93.998 226.603 0 176.493-143.493 319.992-319.986 319.992v-64.003l-128 128 128 127.994v-63.992c246.994 0 447.986-200.997 447.986-447.992 0-114.057-42.399-221.488-119.719-304.643z"></path>
	<path fill="#444444" class="path2" d="M578.887 128.089l-127.994-128v63.997c-247 0-448.003 200.997-448.003 447.992 0 119.874 46.739 232.492 131.758 317.23 10.655 7.888 24.748 11.651 39.012 11.651 35.336 0 63.997-28.655 63.997-64.003 0-14.358-4.799-27.576-12.786-38.259l0.022-0.022c-0.055-0.055-0.122-0.127-0.177-0.188-3.078-4.068-6.581-7.799-10.517-11.026-53.741-59.049-83.309-134.958-83.309-215.383 0-176.499 143.504-319.997 320.003-319.997v64.003l127.994-127.994z"></path>
	<path fill="#444444" class="path3" d="M520.906 499.037c-1.821-27.676-13.539-43.811-48.576-53.674v-24.853h58.119c4.079 4.24 9.814 6.897 16.157 6.897 12.421 0 22.5-10.079 22.5-22.495s-10.079-22.484-22.5-22.484c-6.46 0-12.255 2.74-16.362 7.096h-150.91c-4.102-4.356-9.902-7.096-16.362-7.096-12.415 0-22.506 10.068-22.506 22.484s10.091 22.495 22.506 22.495c6.36 0 12.078-2.657 16.157-6.897h55.96v24.853c-34.661 9.864-46.678 25.999-48.881 53.674h-115.158v68.425h117.699c10.96 24.111 31.384 40.279 64.999 40.279 36.133 0 56.918-17.557 66.416-40.539 25.201 2.469 33.222 11.502 33.222 32.054v22.185c0 7.323 7.96 13.262 17.74 13.262h54.355c9.781 0 17.679-5.939 17.679-13.262 0-13.688 0.382-17.829 0.382-22.738 0-58.877-44.154-95.293-122.636-99.666z"></path>
</symbol>
<symbol id="icon-icon_waterfront" viewBox="0 0 1040 1024">
	<title>icon_waterfront</title>
	<path fill="rgb(255, 255, 255)" class="path1 fill-color9" d="M1032.457 856.101c0 81.437-66.019 147.456-147.456 147.456h-717.275c-81.445 0-147.456-66.019-147.456-147.456v-696.32c0-81.445 66.011-147.456 147.456-147.456h717.275c81.437 0 147.456 66.011 147.456 147.456v696.32z"></path>
	<path fill="rgb(10, 11, 9)" class="path2 fill-color1" d="M33.147 671.879h983.876v2.048h-983.876v-2.048z"></path>
	<path fill="rgb(10, 11, 9)" class="path3 fill-color1" d="M33.147 343.765h983.876v2.048h-983.876v-2.048z"></path>
	<path fill="rgb(10, 11, 9)" class="path4 fill-color1" d="M688.122 16.904h2.048v983.884h-2.048v-983.884z"></path>
	<path fill="rgb(10, 11, 9)" class="path5 fill-color1" d="M359.975 16.904h2.048v983.884h-2.048v-983.884z"></path>
	<path fill="rgb(133, 134, 130)" class="path6 fill-color4" d="M1027.615 871.059c-0.033 39.617-15.778 71.459-41.402 93.692-25.641 22.209-61.334 34.71-101.212 34.71h-717.275c-39.608-0.008-75.424-16.040-101.376-41.992s-41.984-61.768-41.992-101.368h-4.088l4.088 0.098 3.105-127.295-8.184-0.205-3.105 127.336v0.066c0 83.698 67.846 151.544 151.552 151.552h717.275c41.566 0 79.217-13.033 106.578-36.708 27.361-23.658 44.253-58.065 44.22-99.885h-8.184z"></path>
	<path fill="rgb(83, 186, 169)" class="path7 fill-color5" d="M1032.457 752.841h-729.104l-101.294-1.311c95.011 66.748 188.277 128.033 247.103 128.033 58.835 0 583.262-2.892 583.262-2.892z"></path>
	<path fill="rgb(10, 11, 9)" class="path8 fill-color1" d="M878.685 1016.746h-717.3c-88.080 0-159.744-71.664-159.744-159.744v-696.32c0-88.089 71.664-159.744 159.744-159.744h717.3c88.080 0 159.744 71.655 159.744 159.744v696.32c0 88.080-71.664 159.744-159.744 159.744v0zM161.385 25.514c-74.531 0-135.168 60.637-135.168 135.168v696.32c0 74.531 60.637 135.168 135.168 135.168h717.3c74.531 0 135.168-60.637 135.168-135.168v-696.32c0-74.531-60.637-135.168-135.168-135.168h-717.3z"></path>
	<path fill="rgb(26, 25, 24)" class="path9 fill-color2" d="M22.522 590.041c0 0 33.849-17.408 59.408 12.632s25.559 31.228 71.983 70.23c46.424 39.002 19.833 67.338 48.144 55.894 28.312-11.436 6.463-33.284 44.696-11.436s25.993 8.544 49.152 60.080c23.159 51.536 35.496 31.736 35.496 31.736 28.18-4.317 36.176-23.036 88.064 34.816s52.904 24.576 74.752 16.384c21.848-8.192 531.038 12.722 531.038 12.722s-17.334 124.010-113.926 127.689c-96.592 3.67-762.88 30.597-806.568-13.091s-118.358-26.288-82.239-397.656z"></path>
</symbol>
<symbol id="icon-icon_wetland" viewBox="0 0 1049 1024">
	<title>icon_wetland</title>
	<path fill="rgb(255, 255, 255)" class="path1 fill-color9" d="M1035.251 856.101c0 81.437-66.019 147.456-147.456 147.456h-717.292c-81.437 0-147.456-66.019-147.456-147.456v-696.32c0-81.445 66.019-147.456 147.456-147.456h717.292c81.437 0 147.456 66.011 147.456 147.456v696.32z"></path>
	<path fill="rgb(10, 11, 9)" class="path2 fill-color1" d="M35.925 343.765h983.876v2.048h-983.876v-2.048z"></path>
	<path fill="rgb(10, 11, 9)" class="path3 fill-color1" d="M690.908 16.904h2.048v983.884h-2.048v-983.884z"></path>
	<path fill="rgb(10, 11, 9)" class="path4 fill-color1" d="M362.77 16.904h2.048v983.884h-2.048v-983.884z"></path>
	<path fill="rgb(10, 11, 9)" class="path5 fill-color1" d="M881.462 1016.746h-717.283c-88.080 0-159.744-71.664-159.744-159.744v-696.32c0-88.089 71.664-159.744 159.744-159.744h717.283c88.080 0 159.744 71.655 159.744 159.744v696.32c0 88.080-71.664 159.744-159.744 159.744v0zM164.179 25.514c-74.539 0-135.168 60.637-135.168 135.168v696.32c0 74.531 60.629 135.168 135.168 135.168h717.283c74.531 0 135.168-60.637 135.168-135.168v-696.32c0-74.531-60.637-135.168-135.168-135.168h-717.283z"></path>
	<path fill="rgb(120, 188, 87)" class="path6 fill-color6" d="M311.307 528.323v151.478c0 11.313 9.167 20.48 20.48 20.48 11.305 0 20.48-9.167 20.48-20.48v-151.478c0-11.313-9.175-20.48-20.48-20.48-11.313 0-20.48 9.167-20.48 20.48z"></path>
	<path fill="rgb(120, 188, 87)" class="path7 fill-color6" d="M406.859 566.587v113.213c0 11.313 9.167 20.48 20.48 20.48 11.305 0 20.48-9.167 20.48-20.48v-113.213c0-11.313-9.175-20.48-20.48-20.48-11.313 0-20.48 9.167-20.48 20.48z"></path>
	<path fill="rgb(120, 188, 87)" class="path8 fill-color6" d="M502.419 528.323v151.478c0 11.313 9.167 20.48 20.48 20.48s20.48-9.167 20.48-20.48v-151.478c0-11.313-9.167-20.48-20.48-20.48s-20.48 9.167-20.48 20.48z"></path>
	<path fill="rgb(120, 188, 87)" class="path9 fill-color6" d="M597.97 528.323v151.478c0 11.313 9.167 20.48 20.48 20.48s20.48-9.167 20.48-20.48v-151.478c0-11.313-9.167-20.48-20.48-20.48s-20.48 9.167-20.48 20.48z"></path>
	<path fill="rgb(120, 188, 87)" class="path10 fill-color6" d="M693.522 613.691v66.109c0 11.313 9.167 20.48 20.48 20.48s20.48-9.167 20.48-20.48v-66.109c0-11.313-9.167-20.48-20.48-20.48s-20.48 9.167-20.48 20.48z"></path>
</symbol>
</defs>
</svg>
