<?xml version="1.0" encoding="utf-8"?>
<!-- Generator: Adobe Illustrator 19.1.0, SVG Export Plug-In . SVG Version: 6.00 Build 0)  -->
<svg style="position: absolute; width: 0; height: 0;" width="0" height="0" version="1.1" xmlns="http://www.w3.org/2000/svg" xmlns:xlink="http://www.w3.org/1999/xlink">
<!-- <style type="text/css">
.st0{fill:#71B944;}
.st1{fill:#FFFFFF;}
.st2{opacity:0.92;}
.st3{opacity:0.84;}
.st4{opacity:0.76;}
.st5{opacity:0.68;}
.st6{opacity:0.6;fill:#71B944;stroke:#FFFFFF;}
</style> -->
<symbol id="Adapt" viewBox="0 0 600 600">
	<g>
		<path class="st0" fill="currentColor" d="M300.1,372.1l54.3,86.1l-54.3,80.6l0,0.2c0,0,0,0-0.1,0c-85.9,0-161.8-46-204-114.7l96.1-4.9l38.6-95.7l2-0.5
			c1.5,4.9,3.5,9.7,6,14.2C251.7,358.1,274.6,372.1,300.1,372.1z"/>
		<path class="st1" fill="#FFFFFF" d="M300.5,539.5H300c-41.6,0-82.6-11-118.6-31.7c-35-20.1-64.7-48.9-85.8-83.2l-0.4-0.7l0.8,0l95.8-4.8
			l38.6-95.7l2.7-0.6l0.1,0.5c1.5,4.9,3.5,9.6,5.9,14.1c13.4,21.2,36.8,34.4,61.1,34.4h0.3l54.6,86.6l-0.2,0.3L300.6,539
			L300.5,539.5z M96.8,424.8c21,33.9,50.4,62.3,85,82.2c35.8,20.6,76.6,31.5,117.9,31.5l54.1-80.3l-54-85.6
			c-24.5-0.1-48.1-13.4-61.6-34.9c-2.4-4.4-4.4-9.1-5.9-13.9l-1.3,0.3L192.4,420l-0.3,0L96.8,424.8z"/>
	</g>
	<g>
		<g>
			<path class="st1" fill="#FFFFFF" d="M281.1,510.8l0.6,2.2l7,0.6l1-2.1c0.4-0.8,0.7-1.4,1-1.7c0.2-0.3,0.6-0.4,1.1-0.4c0.4,0,0.8,0.2,1.1,0.6
				s0.4,0.7,0.4,1.1c0,0.2-0.1,0.5-0.2,0.7c-0.1,0.2-0.3,0.6-0.5,1l-5.3,10.8c-0.2,0.3-0.3,0.7-0.5,1.1c-0.2,0.4-0.4,0.8-0.6,1.1
				c-0.2,0.3-0.5,0.5-0.8,0.7c-0.3,0.2-0.7,0.2-1.2,0.2c-0.5,0-0.9-0.2-1.2-0.4c-0.3-0.2-0.6-0.5-0.7-0.8c-0.2-0.3-0.3-0.6-0.4-1
				c-0.1-0.3-0.2-0.8-0.4-1.4l-3.6-11.4c-0.3-0.9-0.4-1.5-0.4-1.9c0-0.4,0.2-0.7,0.6-1.1c0.4-0.3,0.8-0.4,1.2-0.4
				c0.3,0,0.5,0.1,0.7,0.2c0.2,0.1,0.3,0.3,0.5,0.4c0.1,0.2,0.2,0.4,0.4,0.8C280.9,510.2,281,510.5,281.1,510.8z M287.6,516.1
				l-5.1-0.4l2,7.3L287.6,516.1z"/>
		</g>
		<g>
			<path class="st1" fill="#FFFFFF" d="M270.1,524.8l-4.5-0.7c-1.2-0.2-2.1-0.5-2.9-0.8c-0.8-0.4-1.5-0.9-2.1-1.6c-1.5-1.8-2-4.2-1.5-7.3
				c0.2-1,0.4-1.9,0.7-2.7c0.3-0.8,0.7-1.5,1.2-2.1c0.5-0.6,1.1-1.1,1.7-1.6c0.5-0.3,1.1-0.6,1.7-0.7c0.6-0.2,1.2-0.2,1.8-0.2
				c0.6,0,1.3,0.1,2.1,0.2l4.5,0.7c0.6,0.1,1.1,0.3,1.4,0.5c0.3,0.2,0.4,0.5,0.5,0.9c0,0.4,0,0.8-0.1,1.4l-2,12.4
				c-0.1,0.7-0.4,1.2-0.8,1.5C271.4,524.8,270.9,524.9,270.1,524.8z M269.2,521.9l1.9-11.5l-2.6-0.4c-0.6-0.1-1-0.2-1.3-0.2
				c-0.3,0-0.7,0-1,0.1c-0.4,0.1-0.7,0.2-1,0.4c-1.3,0.8-2.2,2.4-2.5,4.7c-0.3,1.7-0.2,3,0.1,3.9c0.4,0.9,0.9,1.5,1.6,1.9
				c0.7,0.3,1.6,0.6,2.6,0.8L269.2,521.9z"/>
		</g>
		<g>
			<path class="st1" fill="#FFFFFF" d="M247.3,504.6l0.3,2.3l6.8,1.7l1.3-1.9c0.5-0.8,0.9-1.3,1.2-1.5c0.3-0.2,0.7-0.3,1.2-0.2
				c0.4,0.1,0.8,0.4,1,0.7c0.2,0.4,0.3,0.8,0.2,1.2c-0.1,0.2-0.2,0.5-0.3,0.7s-0.3,0.5-0.6,0.9l-6.9,9.8c-0.2,0.3-0.4,0.6-0.7,1
				s-0.5,0.7-0.8,1c-0.3,0.2-0.6,0.4-0.9,0.5c-0.4,0.1-0.8,0.1-1.2,0c-0.5-0.1-0.8-0.3-1.1-0.6c-0.3-0.3-0.5-0.5-0.6-0.9
				s-0.2-0.7-0.3-1c-0.1-0.4-0.1-0.8-0.2-1.4l-1.7-11.8c-0.1-0.9-0.2-1.5-0.1-1.9c0.1-0.4,0.3-0.7,0.7-0.9c0.4-0.2,0.8-0.3,1.3-0.2
				c0.3,0.1,0.5,0.2,0.6,0.3s0.3,0.3,0.4,0.5c0.1,0.2,0.2,0.5,0.2,0.9C247.2,504,247.2,504.4,247.3,504.6z M252.8,510.9l-5-1.2
				l0.8,7.5L252.8,510.9z"/>
		</g>
		<g>
			<path class="st1" fill="#FFFFFF" d="M233.3,505.4l3,1l1.5-4.6c0.2-0.7,0.5-1.1,1-1.4c0.4-0.2,0.9-0.3,1.3-0.1c0.5,0.2,0.8,0.5,1,0.9
				c0.2,0.4,0.2,1,0,1.6l-4.1,12.6c-0.2,0.7-0.6,1.2-1,1.4c-0.4,0.2-1,0.2-1.7-0.1l-4.2-1.4c-1.3-0.4-2.2-0.8-2.8-1.2
				c-0.6-0.4-1.1-0.9-1.4-1.5s-0.5-1.2-0.6-1.9c0-0.7,0.1-1.4,0.3-2.2c0.5-1.7,1.5-2.8,2.8-3.3C229.6,504.6,231.2,504.7,233.3,505.4
				z M231.6,513.1l2.2,0.7l1.6-5l-2.2-0.7c-0.8-0.3-1.5-0.4-2-0.4s-1.1,0.1-1.5,0.4c-0.4,0.3-0.7,0.7-0.9,1.3
				c-0.2,0.7-0.2,1.4,0.1,2C229.2,512.1,230.1,512.6,231.6,513.1z"/>
		</g>
		<g>
			<path class="st1" fill="#FFFFFF" d="M210.8,504.9l3.5,1.4l4.7-11.5c0.3-0.7,0.6-1.1,1.1-1.3s0.9-0.2,1.3,0c0.5,0.2,0.8,0.5,1,1
				c0.2,0.4,0.1,1-0.2,1.7l-4.7,11.5l3.5,1.4c0.5,0.2,0.9,0.5,1.1,0.9c0.2,0.4,0.2,0.7,0,1.1c-0.2,0.4-0.4,0.7-0.8,0.8
				c-0.4,0.1-0.8,0.1-1.4-0.1l-10.2-4.2c-0.6-0.2-0.9-0.5-1.1-0.9c-0.2-0.4-0.2-0.7,0-1.1c0.2-0.4,0.4-0.7,0.8-0.8
				C209.8,504.7,210.2,504.7,210.8,504.9z"/>
		</g>
	</g>
</symbol>
<symbol id="Evaluate" viewBox="0 0 600 600">
	<g class="st2">
		<path class="st0" fill="currentColor" d="M229.7,303.4c0,6.8,1,13.5,2.9,19.9l-2,0.5l-38.6,95.7L96,424.4c-9.2-14.9-17.9-30.2-23.7-47.1l-0.3-0.8
			c-7.4-22.3-11.5-46.7-11.5-73.1c0-0.7,0-1.3,0.1-2c0-0.7-0.1-1.3-0.1-2c0-44.6,12.5-86.5,34.1-122.3l0.1,0l49.9,86.9l102.1-6.9
			C236.1,269.9,229.7,286.1,229.7,303.4z"/>
		<path class="st1" fill="#FFFFFF" d="M95.7,424.9l-0.2-0.3c-8.9-14.4-17.9-30-23.7-47.2l-0.3-0.8C63.9,353.7,60,329.1,60,303.4c0-0.4,0-0.8,0-1.2
			c0-0.3,0-0.6,0-0.9c0-0.3,0-0.6,0-0.9c0-0.4,0-0.8,0-1.1c0-43.2,11.8-85.6,34.1-122.6l0.3-0.4l0.5,0.3l0.1,0.2l49.7,86.6l102.9-7
			l-0.7,0.9c-10.8,13.2-16.8,29.5-16.8,46c0,6.7,1,13.3,2.9,19.7l0.2,0.5l-2.3,0.5L192.4,420l-0.3,0L95.7,424.9z M94.6,178
			C72.6,214.7,61,256.7,61,299.4c0,0.4,0,0.7,0,1.1c0,0.3,0,0.6,0,0.9c0,0.3,0,0.6,0,0.9c0,0.4,0,0.7,0,1.1
			c0,25.6,3.9,50.1,11.5,72.9l0.3,0.8c5.8,17,14.7,32.5,23.5,46.7l95.5-4.8l38.6-95.7l1.7-0.4c-1.9-6.4-2.8-12.9-2.8-19.5
			c0-16.4,5.8-32.6,16.3-45.8l-101.2,6.8L94.6,178z"/>
	</g>
	<g>
		<g>
			<path class="st1" fill="#FFFFFF" d="M95.6,394.5l3.4,7.1l3.8-1.8l-3.1-6.5c-0.2-0.5-0.3-0.9-0.2-1.2c0.1-0.3,0.3-0.6,0.7-0.8
				c0.4-0.2,0.7-0.2,1-0.1c0.3,0.1,0.6,0.4,0.8,0.9l3.1,6.5l4.4-2.1l-3.5-7.3c-0.2-0.5-0.3-0.9-0.2-1.3c0.1-0.4,0.4-0.6,0.7-0.8
				c0.4-0.2,0.7-0.2,1.1,0c0.3,0.1,0.6,0.5,0.9,1l4,8.5c0.3,0.7,0.4,1.2,0.2,1.7s-0.6,0.8-1.3,1.1L100,405c-0.5,0.2-0.9,0.3-1.2,0.3
				c-0.3,0-0.7-0.1-0.9-0.3c-0.3-0.2-0.5-0.6-0.7-1l-3.9-8.3c-0.2-0.5-0.3-0.9-0.2-1.3c0.1-0.3,0.3-0.6,0.7-0.8
				c0.4-0.2,0.7-0.2,1.1-0.1C95.1,393.7,95.4,394,95.6,394.5z"/>
		</g>
		<g>
			<path class="st1" fill="#FFFFFF" d="M91.7,387.1l9.4-7.7l-12.2,0.5c-0.6,0-1.1,0-1.4,0c-0.3,0-0.5-0.1-0.8-0.2c-0.3-0.2-0.5-0.4-0.6-0.8
				c-0.1-0.3-0.1-0.6-0.1-0.9c0-0.3,0.2-0.5,0.3-0.8c0.2-0.2,0.4-0.4,0.6-0.5c0.2-0.1,0.3-0.1,0.5-0.1c0.2,0,0.4,0,0.6,0
				c0.2,0,0.4,0,0.6,0l12-0.1c0.5,0,0.9,0,1.3,0c0.4,0,0.8,0,1.1,0.1c0.3,0.1,0.7,0.2,1,0.5c0.3,0.2,0.5,0.6,0.7,1
				c0.2,0.4,0.2,0.8,0.2,1.2c-0.1,0.4-0.2,0.7-0.4,1c-0.2,0.3-0.5,0.6-0.8,0.9c-0.3,0.3-0.6,0.6-1,0.9l-8.9,7.8
				c-0.2,0.1-0.3,0.3-0.5,0.4s-0.3,0.3-0.5,0.4c-0.2,0.1-0.4,0.2-0.5,0.3c-0.4,0.1-0.8,0.1-1.2-0.1c-0.4-0.2-0.7-0.5-0.9-1
				c-0.2-0.6-0.2-1,0.1-1.4C90.6,388,91.1,387.6,91.7,387.1z"/>
		</g>
		<g>
			<path class="st1" fill="#FFFFFF" d="M96.4,359.7l-1.8,1.4l2,6.7l2.3,0.2c0.9,0.1,1.5,0.2,1.9,0.3c0.4,0.1,0.6,0.4,0.8,0.9
				c0.1,0.4,0.1,0.8-0.1,1.2c-0.2,0.4-0.5,0.7-0.9,0.8c-0.2,0.1-0.5,0.1-0.7,0.1c-0.3,0-0.6,0-1.1-0.1l-11.9-1
				c-0.3,0-0.8-0.1-1.2-0.1s-0.9-0.1-1.2-0.2s-0.6-0.3-0.9-0.5c-0.3-0.3-0.5-0.6-0.6-1.1c-0.1-0.5-0.2-0.9-0.1-1.2
				c0.1-0.4,0.2-0.7,0.5-1c0.2-0.3,0.5-0.5,0.7-0.8c0.3-0.2,0.7-0.5,1.1-0.9l9.3-7.5c0.7-0.6,1.2-0.9,1.6-1c0.4-0.1,0.8-0.1,1.2,0.2
				c0.4,0.2,0.7,0.6,0.8,1c0.1,0.3,0.1,0.5,0.1,0.7c0,0.2-0.1,0.4-0.2,0.6c-0.1,0.2-0.3,0.4-0.6,0.6S96.6,359.5,96.4,359.7z
				 M93.8,367.7l-1.5-4.9l-6,4.5L93.8,367.7z"/>
		</g>
		<g>
			<path class="st1" fill="#FFFFFF" d="M80.9,353.1l12.2-2.7l-1.5-6.9c-0.1-0.5-0.1-1,0.1-1.4c0.2-0.4,0.5-0.6,0.9-0.7c0.4-0.1,0.8,0,1.1,0.2
				c0.3,0.2,0.5,0.6,0.7,1.2l1.8,8.2c0.2,0.7,0.1,1.3-0.1,1.7c-0.3,0.4-0.8,0.7-1.5,0.8l-12.9,2.9c-0.7,0.2-1.2,0.1-1.6-0.1
				c-0.4-0.2-0.7-0.6-0.8-1.1c-0.1-0.5,0-1,0.2-1.4C79.8,353.5,80.2,353.2,80.9,353.1z"/>
		</g>
		<g>
			<path class="st1" fill="#FFFFFF" d="M86.8,341.1l-8.2,1.2c-0.7,0.1-1.2,0-1.6-0.2c-0.4-0.3-0.6-0.6-0.7-1.2c-0.1-0.5,0-1,0.3-1.3
				c0.3-0.4,0.8-0.6,1.5-0.7l8.4-1.2c1-0.1,1.7-0.4,2.3-0.7c0.6-0.3,1-0.8,1.3-1.3c0.3-0.6,0.3-1.4,0.2-2.4
				c-0.2-1.3-0.7-2.2-1.5-2.7c-0.8-0.5-1.9-0.6-3.4-0.4l-8.4,1.2c-0.7,0.1-1.2,0-1.6-0.2c-0.4-0.3-0.6-0.6-0.7-1.2s0-1,0.3-1.3
				s0.8-0.6,1.5-0.7l8.2-1.2c1.3-0.2,2.5-0.2,3.4-0.1c0.9,0.1,1.8,0.5,2.6,1.1c0.7,0.5,1.2,1.2,1.6,2c0.4,0.8,0.7,1.7,0.8,2.8
				c0.2,1.3,0.2,2.5,0.1,3.4c-0.1,1-0.5,1.8-1,2.5c-0.5,0.7-1.2,1.2-2.1,1.6C89.1,340.6,88.1,340.9,86.8,341.1z"/>
		</g>
		<g>
			<path class="st1" fill="#FFFFFF" d="M88.7,312.4l-2.1,1l0.5,7l2.3,0.7c0.9,0.3,1.5,0.5,1.8,0.7c0.3,0.2,0.5,0.6,0.5,1.1c0,0.4-0.1,0.8-0.4,1.2
				c-0.3,0.4-0.6,0.5-1.1,0.6c-0.2,0-0.5,0-0.7-0.1c-0.3-0.1-0.6-0.2-1.1-0.3L77,320.5c-0.3-0.1-0.7-0.2-1.2-0.4
				c-0.5-0.1-0.8-0.3-1.2-0.5c-0.3-0.2-0.6-0.4-0.8-0.7c-0.2-0.3-0.3-0.7-0.4-1.2c0-0.5,0-0.9,0.2-1.2c0.2-0.3,0.4-0.6,0.7-0.8
				c0.3-0.2,0.6-0.4,0.9-0.6c0.3-0.2,0.8-0.4,1.3-0.6l10.8-5.2c0.8-0.4,1.4-0.6,1.8-0.7c0.4,0,0.8,0.1,1.1,0.4s0.5,0.7,0.6,1.2
				c0,0.3,0,0.5-0.1,0.7c-0.1,0.2-0.2,0.4-0.4,0.5c-0.2,0.1-0.4,0.3-0.7,0.5C89.3,312.1,89,312.3,88.7,312.4z M84.5,319.6l-0.4-5.1
				l-6.9,3.1L84.5,319.6z"/>
		</g>
		<g>
			<path class="st1" fill="#FFFFFF" d="M76.2,297l0,3.8l12.5,0c0.7,0,1.3,0.2,1.6,0.5c0.3,0.3,0.5,0.7,0.5,1.2c0,0.5-0.2,0.9-0.5,1.3
				c-0.4,0.3-0.9,0.5-1.6,0.5l-12.5,0l0,3.8c0,0.6-0.1,1-0.4,1.3c-0.3,0.3-0.6,0.4-1,0.4c-0.4,0-0.8-0.1-1.1-0.4
				c-0.3-0.3-0.4-0.7-0.4-1.3l0-11.1c0-0.6,0.1-1,0.4-1.3c0.3-0.3,0.6-0.4,1-0.4c0.4,0,0.8,0.1,1,0.4C76,295.9,76.2,296.4,76.2,297z
				"/>
		</g>
		<g>
			<path class="st1" fill="#FFFFFF" d="M76.9,280.8l-0.6,7.8l4.2,0.3l0.5-7.2c0-0.5,0.2-0.9,0.4-1.2c0.3-0.2,0.6-0.4,1-0.3c0.4,0,0.7,0.2,0.9,0.5
				c0.2,0.3,0.3,0.7,0.3,1.2l-0.5,7.2l4.9,0.4l0.6-8.1c0-0.5,0.2-0.9,0.5-1.2c0.3-0.3,0.6-0.4,1-0.3c0.4,0,0.7,0.2,1,0.5
				c0.2,0.3,0.3,0.7,0.3,1.3l-0.7,9.4c-0.1,0.8-0.3,1.3-0.6,1.6c-0.4,0.3-0.9,0.4-1.7,0.4L75.6,292c-0.5,0-0.9-0.1-1.2-0.3
				c-0.3-0.2-0.5-0.4-0.6-0.7c-0.1-0.3-0.2-0.7-0.1-1.2l0.7-9.2c0-0.6,0.2-1,0.5-1.2c0.3-0.3,0.6-0.4,1-0.3c0.4,0,0.7,0.2,0.9,0.5
				C76.9,279.8,77,280.2,76.9,280.8z"/>
		</g>
	</g>
</symbol>
<symbol id="Monitor" viewBox="0 0 600 600">
	<g class="st3">
		<path class="st0" fill="currentColor" d="M318,60.9l-56.2,82.6l51.9,86.9c-3.3-0.5-6.7-0.8-10.1-0.8c-22.6,0-43.2,10.8-56.9,27.5L144.5,264l-49.9-86.9
			l-0.1,0c42-69.7,118.7-116.6,205.6-116.6c0.6,0,1.3,0,1.9,0c0.5,0,1,0,1.4,0C308.4,60.4,313.2,60.6,318,60.9z"/>
		<path class="st1" fill="#FFFFFF" d="M144.3,264.5l-0.2-0.3l-49.8-86.8l-0.3-0.2l0.2-0.5c21-34.9,50.8-64.2,86.2-84.6
			c36.4-21.1,77.8-32.2,119.8-32.2c0.3,0,0.7,0,1,0c0.5,0,1.1,0,1.6,0c0.2,0,0.5,0,0.7,0c4.8,0,9.7,0.1,14.6,0.4l0.9,0.1l-56.6,83.1
			l52.3,87.6l-1-0.2c-3.3-0.5-6.7-0.8-10.1-0.8c-21.7,0-42.3,9.9-56.5,27.3l-0.1,0.2L144.3,264.5z M95.2,177l49.6,86.5l101.5-6.9
			c14.4-17.5,35.2-27.5,57.1-27.5c3.1,0,6.2,0.2,9.2,0.6l-51.5-86.3l0.2-0.3l55.7-81.9c-4.5-0.3-9.1-0.4-13.6-0.4
			c-0.2,0-0.5,0-0.7,0c-0.6,0-1.1,0-1.7,0c-0.3,0-0.6,0-0.9,0C258.3,60.9,217,72,180.8,93C145.7,113.3,116.1,142.4,95.2,177z"/>
	</g>
	<g>
		<g>
			<path class="st1" fill="#FFFFFF" d="M126.5,177.7l-10.4-4.3l9.5,7.1c0.5,0.4,0.8,0.8,0.9,1.2c0.1,0.4,0,0.8-0.3,1.2c-0.3,0.4-0.6,0.6-1.1,0.6
				c-0.4,0-0.9-0.1-1.5-0.5l-10.9-8.1c-0.6-0.4-0.9-0.9-0.9-1.4c0-0.5,0.2-1,0.6-1.5l0.6-0.9c0.4-0.5,0.7-0.9,1-1
				c0.3-0.2,0.6-0.2,0.9-0.1c0.3,0.1,0.8,0.2,1.5,0.5l9,3.6l-6.1-7.6c-0.4-0.6-0.7-1-0.9-1.3c-0.2-0.3-0.2-0.6-0.1-0.9
				c0.1-0.3,0.3-0.7,0.7-1.2l0.6-0.9c0.4-0.5,0.8-0.9,1.3-1c0.4-0.2,1,0,1.6,0.4l10.9,8.1c0.5,0.4,0.8,0.8,0.9,1.2
				c0.1,0.4,0,0.8-0.3,1.2c-0.3,0.4-0.6,0.6-1.1,0.6c-0.4,0-0.9-0.1-1.5-0.5l-9.5-7.1l7.1,8.7c0.5,0.6,0.8,1,1,1.3
				c0.2,0.3,0.3,0.6,0.4,1c0,0.4-0.1,0.8-0.4,1.3c-0.2,0.3-0.5,0.6-0.8,0.7c-0.3,0.1-0.6,0.2-0.9,0.1c-0.3,0-0.6-0.1-0.9-0.2
				C127.2,178,126.8,177.8,126.5,177.7z"/>
		</g>
		<g>
			<path class="st1" fill="#FFFFFF" d="M129.2,150.7c1.2-1.3,2.5-2.2,3.9-2.7c1.4-0.5,2.8-0.5,4.2-0.1c1.4,0.4,2.8,1.2,4.2,2.4
				c1,0.9,1.8,1.8,2.3,2.8c0.6,1,0.9,2,1,3.1c0.1,1.1,0,2.1-0.4,3.2c-0.4,1.1-1,2.1-1.9,3.1c-0.9,1-1.9,1.8-2.9,2.3
				c-1,0.5-2.1,0.8-3.1,0.8c-1.1,0-2.1-0.2-3.2-0.7c-1.1-0.5-2.1-1.1-3-2c-1-0.9-1.8-1.8-2.3-2.8c-0.6-1-0.9-2.1-1-3.1
				c-0.1-1.1,0-2.1,0.4-3.1C127.7,152.7,128.4,151.6,129.2,150.7z M139.1,152.9c-0.9-0.8-1.9-1.4-2.8-1.7s-1.9-0.3-2.7-0.1
				c-0.9,0.2-1.6,0.7-2.3,1.5c-0.5,0.5-0.8,1.1-1,1.7c-0.2,0.6-0.3,1.2-0.2,1.9c0.1,0.7,0.3,1.3,0.8,2c0.4,0.7,1,1.4,1.7,2
				c0.7,0.7,1.5,1.1,2.2,1.5c0.8,0.3,1.5,0.5,2.2,0.5c0.7,0,1.3-0.1,1.9-0.4s1.1-0.7,1.6-1.2c0.6-0.7,1-1.4,1.1-2.3
				c0.2-0.9,0.1-1.8-0.3-2.7C140.8,154.7,140.1,153.8,139.1,152.9z"/>
		</g>
		<g>
			<path class="st1" fill="#FFFFFF" d="M142.7,139.8l11.8,2.7l-7.1-7.4c-0.5-0.5-0.7-0.9-0.7-1.4c0-0.4,0.1-0.8,0.5-1.2c0.4-0.3,0.8-0.5,1.2-0.5
				c0.4,0,0.9,0.3,1.3,0.8l9.4,9.7c1,1.1,1.1,2.1,0.2,2.9c-0.2,0.2-0.5,0.4-0.7,0.5c-0.2,0.1-0.5,0.2-0.8,0.2c-0.3,0-0.6,0-0.9-0.1
				c-0.3-0.1-0.6-0.1-1-0.2l-11.6-2.7l7,7.3c0.5,0.5,0.7,0.9,0.7,1.4c0,0.5-0.2,0.8-0.5,1.2c-0.4,0.3-0.8,0.5-1.2,0.5
				c-0.4,0-0.9-0.3-1.3-0.8l-9.2-9.6c-0.4-0.4-0.7-0.8-0.8-1.1c-0.1-0.4-0.2-0.7-0.1-1.1c0.1-0.4,0.3-0.7,0.6-1
				c0.2-0.2,0.5-0.4,0.7-0.4c0.2-0.1,0.5-0.1,0.7-0.1c0.2,0,0.5,0,0.8,0.1C142,139.6,142.3,139.7,142.7,139.8z"/>
		</g>
		<g>
			<path class="st1" fill="#FFFFFF" d="M162.4,140.2l-8.6-10.4c-0.5-0.5-0.7-1-0.6-1.5c0-0.5,0.2-0.9,0.6-1.2c0.4-0.3,0.8-0.5,1.3-0.4
				s0.9,0.4,1.4,0.9l8.6,10.4c0.5,0.5,0.7,1.1,0.6,1.5c0,0.5-0.2,0.9-0.6,1.2c-0.4,0.3-0.8,0.4-1.3,0.4
				C163.4,141,162.9,140.7,162.4,140.2z"/>
		</g>
		<g>
			<path class="st1" fill="#FFFFFF" d="M169.7,118.7l-3,2.3l7.5,10c0.4,0.6,0.6,1.1,0.6,1.6c0,0.5-0.3,0.9-0.7,1.2c-0.4,0.3-0.9,0.4-1.3,0.3
				c-0.5-0.1-0.9-0.4-1.3-1l-7.5-10l-3,2.3c-0.5,0.4-0.9,0.5-1.3,0.5c-0.4,0-0.7-0.2-1-0.6c-0.3-0.4-0.4-0.7-0.3-1.1
				c0.1-0.4,0.4-0.8,0.8-1.1l8.9-6.6c0.5-0.4,0.9-0.5,1.3-0.5c0.4,0,0.7,0.2,1,0.6c0.3,0.3,0.3,0.7,0.3,1.1
				C170.4,118,170.2,118.4,169.7,118.7z"/>
		</g>
		<g>
			<path class="st1" fill="#FFFFFF" d="M178.2,109.3c1.5-0.9,3-1.5,4.5-1.5c1.5-0.1,2.8,0.3,4.1,1.1c1.3,0.8,2.4,1.9,3.3,3.4
				c0.7,1.1,1.2,2.2,1.5,3.4c0.3,1.1,0.3,2.2,0.1,3.3c-0.2,1.1-0.6,2-1.3,3c-0.7,0.9-1.6,1.7-2.7,2.5c-1.1,0.7-2.3,1.2-3.4,1.4
				c-1.1,0.2-2.2,0.2-3.2-0.1c-1-0.3-2-0.8-2.9-1.6s-1.7-1.7-2.4-2.8c-0.7-1.1-1.2-2.2-1.5-3.4c-0.3-1.1-0.3-2.2-0.1-3.3
				c0.2-1,0.6-2,1.3-2.9C176.2,110.8,177.1,110,178.2,109.3z M187.1,114.1c-0.7-1.1-1.4-1.9-2.3-2.4c-0.8-0.6-1.7-0.8-2.6-0.8
				c-0.9,0-1.7,0.3-2.6,0.8c-0.6,0.4-1.1,0.8-1.4,1.4c-0.4,0.5-0.6,1.1-0.7,1.8c-0.1,0.7,0,1.4,0.2,2.2c0.2,0.8,0.6,1.6,1.1,2.4
				c0.5,0.8,1.1,1.5,1.7,2c0.6,0.5,1.3,0.9,1.9,1.1c0.7,0.2,1.3,0.3,1.9,0.2c0.6-0.1,1.2-0.3,1.8-0.7c0.8-0.5,1.3-1.1,1.7-1.9
				c0.4-0.8,0.5-1.7,0.4-2.7C188.2,116.4,187.8,115.3,187.1,114.1z"/>
		</g>
		<g>
			<path class="st1" fill="#FFFFFF" d="M198.1,109.5l-1.1,0.6l2.5,4.9c0.3,0.6,0.4,1.2,0.3,1.6c-0.1,0.5-0.4,0.8-0.9,1c-0.5,0.3-1,0.3-1.4,0.1
				s-0.8-0.6-1.1-1.2l-6-11.8c-0.3-0.7-0.4-1.2-0.3-1.7c0.1-0.5,0.6-0.8,1.2-1.2l5-2.6c0.7-0.4,1.3-0.6,1.8-0.8
				c0.5-0.2,1-0.3,1.5-0.3c0.6,0,1.2,0,1.7,0.2c0.6,0.2,1.1,0.5,1.5,0.9c0.4,0.4,0.8,0.9,1.1,1.4c0.6,1.1,0.7,2.2,0.4,3.2
				c-0.3,1-1,2-2.2,3c0.7,0,1.4,0.2,2.2,0.5c0.8,0.3,1.6,0.7,2.3,1.1c0.7,0.4,1.3,0.9,1.8,1.3c0.5,0.4,0.8,0.7,0.9,0.9
				c0.1,0.2,0.1,0.4,0.1,0.7c0,0.3-0.1,0.5-0.3,0.7c-0.2,0.2-0.4,0.4-0.7,0.6c-0.3,0.2-0.7,0.2-1,0.2s-0.6-0.1-0.9-0.3
				c-0.3-0.2-0.7-0.4-1.3-0.7l-2.3-1.4c-0.8-0.5-1.5-0.9-2.1-1.1c-0.6-0.2-1.1-0.3-1.5-0.3C199.1,109.1,198.6,109.2,198.1,109.5z
				 M196.6,102.2l-2.9,1.5l2.2,4.2l2.8-1.4c0.7-0.4,1.3-0.8,1.8-1.2c0.4-0.4,0.7-0.8,0.8-1.3c0.1-0.4,0-0.9-0.3-1.5
				c-0.2-0.4-0.5-0.7-0.9-1c-0.4-0.2-0.8-0.3-1.3-0.3C198.4,101.3,197.6,101.6,196.6,102.2z"/>
		</g>
	</g>
</symbol>
<symbol id="Implement" viewBox="0 0 600 600">
	<g class="st4">
		<path class="st0" fill="currentColor" d="M529.7,216.8l2.9,9.2l6.6,21.1l-102-46.8L372,278.5c-5.3-14.2-14.9-26.5-27-35.2l-0.1,0.3
			c-1.3-1-2.6-2-3.9-2.9c-8.3-5.2-17.6-8.8-27.4-10.3l-51.9-86.9L318,60.9C414.6,66.7,496.3,130,529.7,216.8z"/>
		<path class="st1" fill="#FFFFFF" d="M371.8,279.5l-0.3-0.8c-5.1-13.6-14.4-25.8-26.2-34.5l-0.1,0.4l-0.7-0.5c-1.3-1-2.6-2-3.9-2.9
			c-8.5-5.3-17.7-8.7-27.2-10.2l-0.2,0l-0.1-0.2l-52-87.2l0.2-0.3l56.4-82.9l0.3,0c94.6,5.7,177.8,67,212.1,156.2l0,0l9.8,31.4
			L437.3,201L371.8,279.5z M344.6,242.4l0.7,0.5c12.1,8.6,21.6,20.9,26.9,34.6l64.8-77.7l0.3,0.2l101,46.3l-9.1-29.3
			c-34.1-88.8-116.9-149.8-211-155.6l-55.9,82.1l51.6,86.4c9.6,1.5,18.8,5,27.3,10.3c1.1,0.8,2.2,1.6,3.3,2.4L344.6,242.4z"/>
	</g>
	<g>
		<g>
			<path class="st1" fill="#FFFFFF" d="M328.5,89.8l2-13.4c0.1-0.7,0.3-1.2,0.7-1.5c0.4-0.3,0.8-0.4,1.3-0.3c0.5,0.1,0.9,0.3,1.2,0.7
				c0.3,0.4,0.4,0.9,0.2,1.6l-2,13.4c-0.1,0.7-0.3,1.2-0.7,1.5c-0.4,0.3-0.8,0.4-1.3,0.3c-0.5-0.1-0.9-0.3-1.1-0.7
				C328.5,91.1,328.4,90.5,328.5,89.8z"/>
		</g>
		<g>
			<path class="st1" fill="#FFFFFF" d="M341.8,91.3L341.4,80l-2.5,11.6c-0.1,0.6-0.4,1.1-0.7,1.3c-0.4,0.3-0.8,0.3-1.2,0.2c-0.5-0.1-0.8-0.3-1-0.7
				c-0.2-0.4-0.3-0.9-0.1-1.5l2.9-13.3c0.2-0.7,0.5-1.2,0.9-1.4c0.4-0.2,1-0.2,1.6-0.1l1.1,0.2c0.6,0.1,1.1,0.3,1.3,0.5
				c0.3,0.2,0.4,0.4,0.5,0.8c0.1,0.3,0.1,0.8,0.2,1.6l0.5,9.7l4.4-8.7c0.3-0.6,0.6-1.1,0.8-1.4c0.2-0.3,0.5-0.4,0.8-0.5
				c0.3-0.1,0.8,0,1.4,0.1l1.1,0.2c0.6,0.1,1.1,0.4,1.5,0.7s0.4,0.9,0.3,1.6l-2.9,13.3c-0.1,0.6-0.4,1.1-0.7,1.4
				c-0.4,0.3-0.8,0.3-1.3,0.2c-0.5-0.1-0.8-0.3-1-0.7s-0.3-0.9-0.1-1.5l2.5-11.6l-5,10.1c-0.3,0.7-0.6,1.1-0.8,1.4
				c-0.2,0.3-0.4,0.6-0.8,0.8c-0.4,0.2-0.8,0.2-1.3,0.1c-0.4-0.1-0.7-0.2-1-0.5s-0.4-0.5-0.5-0.8c-0.1-0.3-0.2-0.6-0.2-1
				C341.8,92.1,341.8,91.7,341.8,91.3z"/>
		</g>
		<g>
			<path class="st1" fill="#FFFFFF" d="M363.4,92.7l-3-0.9l-1.4,4.6c-0.2,0.7-0.5,1.1-0.9,1.4c-0.4,0.2-0.9,0.3-1.3,0.2c-0.5-0.2-0.9-0.4-1.1-0.9
				c-0.2-0.4-0.2-1,0-1.6l3.9-12.7c0.2-0.7,0.6-1.2,1-1.4c0.4-0.2,1-0.2,1.7,0l4.3,1.3c1.3,0.4,2.2,0.8,2.8,1.2
				c0.6,0.4,1.1,0.9,1.5,1.5c0.4,0.6,0.6,1.2,0.6,1.9c0.1,0.7,0,1.4-0.3,2.2c-0.5,1.7-1.4,2.8-2.7,3.3
				C367.1,93.3,365.4,93.3,363.4,92.7z M364.9,84.9l-2.2-0.7l-1.5,5l2.2,0.7c0.8,0.2,1.5,0.4,2,0.4c0.6,0,1.1-0.1,1.5-0.4
				c0.4-0.3,0.7-0.7,0.9-1.3c0.2-0.7,0.2-1.4-0.1-2C367.3,85.9,366.4,85.3,364.9,84.9z"/>
		</g>
		<g>
			<path class="st1" fill="#FFFFFF" d="M379.1,88.9l-4.6,11.6l6.6,2.6c0.5,0.2,0.9,0.5,1.1,0.9s0.2,0.7,0,1.1c-0.2,0.4-0.4,0.7-0.8,0.8
				c-0.4,0.1-0.8,0.1-1.4-0.1l-7.8-3.1c-0.7-0.3-1.2-0.6-1.3-1.1c-0.2-0.4-0.1-1,0.1-1.7l4.9-12.3c0.3-0.7,0.6-1.1,1-1.3
				s0.9-0.2,1.4,0c0.5,0.2,0.8,0.5,1,1S379.4,88.2,379.1,88.9z"/>
		</g>
		<g>
			<path class="st1" fill="#FFFFFF" d="M400.2,99l-7.1-3.3l-1.8,3.8l6.5,3.1c0.5,0.2,0.8,0.5,0.9,0.8c0.1,0.3,0.1,0.7,0,1s-0.4,0.6-0.8,0.7
				c-0.3,0.1-0.8,0.1-1.2-0.2l-6.5-3.1l-2.1,4.4l7.3,3.5c0.5,0.2,0.8,0.5,1,0.9c0.1,0.3,0.1,0.7-0.1,1.1c-0.2,0.4-0.4,0.6-0.8,0.7
				c-0.4,0.1-0.8,0.1-1.3-0.2l-8.6-4c-0.7-0.3-1.1-0.7-1.3-1.2c-0.2-0.4-0.1-1,0.2-1.7l5.5-11.7c0.2-0.5,0.5-0.8,0.7-1
				c0.3-0.2,0.6-0.3,0.9-0.3c0.3,0,0.7,0.1,1.2,0.3l8.3,3.9c0.5,0.2,0.8,0.5,1,0.9c0.1,0.3,0.1,0.7,0,1c-0.2,0.4-0.4,0.6-0.8,0.7
				C401.1,99.3,400.7,99.2,400.2,99z"/>
		</g>
		<g>
			<path class="st1" fill="#FFFFFF" d="M404.6,114.8l3.1-10.9l-5.9,10.3c-0.3,0.6-0.7,0.9-1.1,1.1c-0.4,0.1-0.8,0.1-1.3-0.2c-0.4-0.2-0.7-0.6-0.8-1
				c-0.1-0.4,0-0.9,0.4-1.5l6.8-11.8c0.4-0.6,0.8-1,1.3-1c0.5,0,1,0.1,1.6,0.5l0.9,0.5c0.6,0.3,0.9,0.6,1.1,0.9s0.3,0.5,0.2,0.9
				s-0.1,0.8-0.3,1.5l-2.6,9.4l6.9-6.9c0.5-0.5,0.9-0.9,1.2-1c0.3-0.2,0.6-0.3,0.9-0.2c0.3,0,0.7,0.2,1.3,0.6l0.9,0.5
				c0.6,0.3,1,0.7,1.2,1.1c0.2,0.4,0.1,1-0.3,1.6l-6.8,11.8c-0.3,0.6-0.7,0.9-1.1,1.1c-0.4,0.1-0.8,0.1-1.3-0.2
				c-0.4-0.2-0.6-0.6-0.7-1c-0.1-0.4,0-0.9,0.4-1.5l5.9-10.3l-7.9,8.1c-0.5,0.5-0.9,0.9-1.2,1.1c-0.3,0.2-0.6,0.4-1,0.5
				s-0.8,0-1.3-0.3c-0.4-0.2-0.6-0.5-0.8-0.7s-0.2-0.6-0.2-0.9c0-0.3,0-0.6,0.1-1C404.4,115.5,404.5,115.2,404.6,114.8z"/>
		</g>
		<g>
			<path class="st1" fill="#FFFFFF" d="M433,119l-6.4-4.5l-2.4,3.5l5.9,4.1c0.4,0.3,0.7,0.6,0.8,1s0,0.7-0.2,1c-0.2,0.3-0.5,0.5-0.9,0.6
				c-0.4,0.1-0.8-0.1-1.2-0.4l-5.9-4.1l-2.8,4l6.6,4.6c0.4,0.3,0.7,0.7,0.8,1s0,0.7-0.2,1.1c-0.2,0.3-0.5,0.5-0.9,0.6
				c-0.4,0-0.8-0.1-1.2-0.4l-7.8-5.4c-0.6-0.4-1-0.9-1.1-1.3c-0.1-0.5,0.1-1,0.5-1.6l7.4-10.6c0.3-0.4,0.6-0.7,0.9-0.9
				c0.3-0.2,0.6-0.2,1-0.2c0.3,0.1,0.7,0.2,1.1,0.5l7.5,5.3c0.5,0.3,0.7,0.7,0.8,1s0,0.7-0.2,1c-0.2,0.3-0.5,0.5-0.9,0.6
				C433.9,119.4,433.5,119.3,433,119z"/>
		</g>
		<g>
			<path class="st1" fill="#FFFFFF" d="M441.8,124.7l-1.3,12.1l6.5-7.9c0.4-0.5,0.9-0.8,1.3-0.9s0.8,0,1.2,0.4c0.4,0.3,0.6,0.7,0.6,1.1
				c0,0.4-0.2,0.9-0.6,1.4l-8.6,10.4c-1,1.2-1.9,1.3-2.9,0.5c-0.2-0.2-0.4-0.4-0.6-0.6c-0.1-0.2-0.2-0.5-0.3-0.8s-0.1-0.6,0-0.9
				c0-0.3,0-0.6,0.1-1l1.4-11.9l-6.4,7.8c-0.4,0.5-0.9,0.8-1.3,0.9c-0.4,0.1-0.9-0.1-1.2-0.4c-0.4-0.3-0.6-0.7-0.6-1.1
				c0-0.5,0.2-0.9,0.6-1.4l8.5-10.2c0.4-0.4,0.7-0.7,1-0.9c0.3-0.2,0.7-0.2,1.1-0.2c0.4,0,0.8,0.2,1.1,0.5c0.2,0.2,0.4,0.4,0.5,0.6
				c0.1,0.2,0.2,0.5,0.2,0.7c0,0.2,0,0.5,0,0.8C441.9,124,441.8,124.4,441.8,124.7z"/>
		</g>
		<g>
			<path class="st1" fill="#FFFFFF" d="M460.4,143l-2.7-2.6l-8.7,9c-0.5,0.5-1,0.8-1.5,0.8c-0.5,0-0.9-0.1-1.3-0.5c-0.4-0.4-0.5-0.8-0.5-1.3
				c0-0.5,0.3-1,0.8-1.5l8.7-8.9l-2.7-2.6c-0.4-0.4-0.7-0.8-0.7-1.2c0-0.4,0.1-0.7,0.4-1c0.3-0.3,0.7-0.5,1.1-0.4
				c0.4,0,0.8,0.2,1.2,0.6l7.9,7.7c0.4,0.4,0.7,0.8,0.7,1.2c0,0.4-0.1,0.7-0.4,1.1c-0.3,0.3-0.6,0.5-1,0.4
				C461.2,143.6,460.8,143.4,460.4,143z"/>
		</g>
	</g>
</symbol>
<symbol id="Design" viewBox="0 0 600 600">
	<g class="st5">
		<path class="st0" fill="currentColor" d="M539.1,247.1c0.9,44.8-0.1,70,0,107.8v52.9H539l-80.8-54.2l-86,54.1v-49.4V322v-42.8
			c-0.1-0.2-0.2-0.4-0.2-0.7l65.1-78.1L539.1,247.1z"/>
		<path class="st1" fill="#FFFFFF" d="M371.7,408.7V279.2l-0.3-0.8l0.2-0.2l65.4-78.4l0.3,0.2l102.3,46.9l0,0.3c0.6,28.3,0.4,48.4,0.2,69.6
			c-0.1,11.9-0.2,24.3-0.2,38.2v53.4h-0.8l-0.1-0.1l-80.5-54L371.7,408.7z M458.3,353.1l0.3,0.2l80.1,53.8v-52.1
			c0-13.9,0.1-26.3,0.2-38.2c0.2-21.1,0.4-41.1-0.2-69.2L437.3,201l-64.7,77.6l0.2,0.6v127.7L458.3,353.1z"/>
	</g>
	<g>
		<g>
			<path class="st1" fill="#FFFFFF" d="M525.2,259.6l0.5,4.5c0.1,1.2,0.1,2.2,0,3.1s-0.5,1.7-1,2.4c-1.3,1.9-3.6,3.1-6.7,3.4c-1,0.1-2,0.1-2.8,0
				s-1.7-0.3-2.4-0.6c-0.7-0.3-1.4-0.7-2-1.2c-0.5-0.4-0.8-0.9-1.1-1.4c-0.3-0.5-0.5-1.1-0.7-1.7c-0.2-0.6-0.3-1.3-0.4-2.1l-0.5-4.5
				c-0.1-0.6,0-1.1,0.1-1.5c0.2-0.3,0.4-0.6,0.7-0.7c0.3-0.1,0.8-0.2,1.3-0.3l12.5-1.3c0.7-0.1,1.3,0,1.7,0.3
				C524.9,258.4,525.1,258.9,525.2,259.6z M522.6,261.3l-11.6,1.2l0.3,2.6c0.1,0.6,0.1,1,0.2,1.3c0.1,0.3,0.2,0.7,0.3,1
				c0.2,0.3,0.4,0.6,0.6,0.9c1.1,1.1,2.8,1.5,5.2,1.2c1.7-0.2,2.9-0.6,3.7-1.1c0.8-0.6,1.3-1.3,1.4-2c0.2-0.8,0.2-1.7,0.1-2.7
				L522.6,261.3z"/>
		</g>
		<g>
			<path class="st1" fill="#FFFFFF" d="M524.8,287.2l-0.5-7.8l-4.2,0.3l0.5,7.2c0,0.5-0.1,0.9-0.3,1.2c-0.2,0.3-0.5,0.4-0.9,0.5
				c-0.4,0-0.7-0.1-1-0.3c-0.3-0.2-0.4-0.6-0.4-1.2l-0.5-7.2l-4.9,0.3l0.5,8.1c0,0.5-0.1,1-0.3,1.3c-0.2,0.3-0.6,0.5-1,0.5
				c-0.4,0-0.7-0.1-1-0.3c-0.3-0.3-0.4-0.7-0.5-1.2l-0.6-9.4c-0.1-0.8,0.1-1.3,0.4-1.7c0.3-0.4,0.8-0.6,1.6-0.6l12.9-0.9
				c0.5,0,0.9,0,1.2,0.1c0.3,0.1,0.6,0.3,0.7,0.6c0.2,0.3,0.3,0.7,0.3,1.2l0.6,9.2c0,0.6-0.1,1-0.3,1.3c-0.2,0.3-0.5,0.4-0.9,0.5
				c-0.4,0-0.7-0.1-1-0.3C525,288.2,524.9,287.8,524.8,287.2z"/>
		</g>
		<g>
			<path class="st1" fill="#FFFFFF" d="M516.3,305.7c-1,0-2-0.2-2.8-0.7c-0.8-0.5-1.5-1.3-2-2.3s-0.8-2.2-0.8-3.6c-0.1-1.7,0.2-3.1,0.8-4.2
				c0.4-0.8,1-1.5,1.8-2c0.8-0.5,1.5-0.8,2.2-0.8c0.4,0,0.8,0.1,1.1,0.4c0.3,0.3,0.5,0.6,0.5,1.1c0,0.4-0.1,0.7-0.3,0.9
				c-0.2,0.3-0.6,0.5-1,0.7c-0.5,0.2-1,0.5-1.3,0.8c-0.4,0.3-0.6,0.6-0.9,1.1c-0.2,0.5-0.3,1.1-0.3,1.8c0,1,0.3,1.9,0.8,2.5
				s1.1,0.9,1.8,0.9c0.6,0,1-0.2,1.4-0.6c0.3-0.4,0.6-0.8,0.8-1.4c0.2-0.6,0.3-1.3,0.5-2.2c0.2-1.2,0.5-2.3,0.9-3.1
				c0.4-0.8,0.9-1.5,1.5-2c0.6-0.5,1.5-0.8,2.5-0.8c0.9,0,1.8,0.2,2.5,0.7c0.8,0.5,1.3,1.2,1.8,2.2c0.4,1,0.7,2.1,0.7,3.4
				c0,1.1-0.1,2-0.3,2.7c-0.2,0.8-0.6,1.4-1,2c-0.4,0.5-0.9,0.9-1.3,1.2c-0.5,0.3-0.9,0.4-1.4,0.4c-0.4,0-0.8-0.1-1.1-0.4
				c-0.3-0.3-0.5-0.6-0.5-1.1c0-0.4,0.1-0.7,0.3-0.9s0.5-0.5,1-0.7c0.6-0.3,1.1-0.7,1.5-1.2c0.3-0.5,0.5-1.2,0.5-2.1
				c0-0.9-0.3-1.6-0.7-2.1c-0.4-0.5-0.9-0.8-1.5-0.8c-0.3,0-0.6,0.1-0.9,0.3c-0.2,0.2-0.4,0.5-0.6,0.8c-0.2,0.3-0.3,0.7-0.4,1
				c-0.1,0.3-0.2,0.9-0.4,1.7c-0.2,1-0.4,1.9-0.6,2.7s-0.5,1.5-0.9,2c-0.4,0.6-0.8,1-1.4,1.3C517.9,305.5,517.2,305.7,516.3,305.7z"
				/>
		</g>
		<g>
			<path class="st1" fill="#FFFFFF" d="M513,309l13.5-0.2c0.7,0,1.2,0.1,1.6,0.5c0.4,0.3,0.5,0.7,0.5,1.2c0,0.5-0.2,1-0.5,1.3
				c-0.3,0.3-0.9,0.5-1.6,0.5l-13.5,0.2c-0.7,0-1.2-0.1-1.6-0.5s-0.5-0.7-0.5-1.3c0-0.5,0.2-0.9,0.5-1.2
				C511.8,309.2,512.3,309,513,309z"/>
		</g>
		<g>
			<path class="st1" fill="#FFFFFF" d="M518.1,332.2l-3.3-0.1c-0.4,0-0.8-0.1-1-0.1c-0.3-0.1-0.5-0.3-0.7-0.5c-0.2-0.2-0.4-0.5-0.6-0.9
				c-0.5-1-0.9-2.1-1.2-3c-0.2-1-0.4-2-0.3-3.1c0-1.3,0.2-2.5,0.7-3.6c0.4-1.1,1-2,1.8-2.7c0.8-0.8,1.7-1.3,2.8-1.7s2.3-0.6,3.7-0.6
				c1.3,0,2.6,0.2,3.7,0.7c1.1,0.4,2,1,2.8,1.8c0.8,0.8,1.3,1.7,1.7,2.9c0.4,1.1,0.6,2.4,0.5,3.8c0,1.2-0.2,2.2-0.5,3.1
				c-0.3,0.9-0.7,1.6-1.2,2.1c-0.5,0.5-1,1-1.5,1.2c-0.5,0.3-1,0.4-1.4,0.4c-0.4,0-0.8-0.2-1.1-0.5c-0.3-0.3-0.5-0.7-0.4-1.2
				c0-0.2,0.1-0.5,0.2-0.7c0.1-0.2,0.3-0.4,0.5-0.6c0.7-0.4,1.2-0.8,1.5-1.1c0.3-0.3,0.6-0.7,0.9-1.2c0.2-0.5,0.4-1.1,0.4-1.9
				c0-0.8-0.1-1.5-0.4-2.2c-0.3-0.6-0.7-1.2-1.2-1.6c-0.5-0.5-1.2-0.8-1.9-1.1c-0.8-0.3-1.6-0.4-2.5-0.4c-2,0-3.6,0.4-4.7,1.3
				c-1.1,0.9-1.7,2.2-1.7,3.8c0,0.8,0.1,1.6,0.3,2.3c0.2,0.7,0.5,1.4,0.9,2.2l2.8,0l0-2.7c0-0.6,0.1-1.1,0.3-1.5
				c0.2-0.3,0.5-0.5,1-0.5c0.4,0,0.7,0.2,0.9,0.4c0.2,0.3,0.4,0.7,0.4,1.1l-0.1,3.9c0,0.5-0.1,0.9-0.2,1.2c-0.1,0.3-0.3,0.6-0.6,0.8
				C519.1,332.1,518.6,332.2,518.1,332.2z"/>
		</g>
		<g>
			<path class="st1" fill="#FFFFFF" d="M525.9,341l-10.6,6l10.2,0.7c0.7,0,1.2,0.2,1.5,0.5c0.3,0.3,0.5,0.7,0.4,1.2c0,0.5-0.2,0.9-0.6,1.1
				c-0.4,0.3-0.9,0.4-1.5,0.3l-13.5-0.9c-1.5-0.1-2.2-0.8-2.1-2c0-0.3,0.1-0.6,0.2-0.8c0.1-0.2,0.3-0.5,0.5-0.7
				c0.2-0.2,0.5-0.4,0.7-0.6c0.3-0.2,0.6-0.3,0.8-0.5l10.4-5.8l-10-0.7c-0.7,0-1.1-0.2-1.5-0.6c-0.3-0.3-0.5-0.7-0.4-1.2
				c0-0.5,0.2-0.9,0.6-1.1c0.4-0.3,0.9-0.4,1.5-0.3l13.2,0.9c0.6,0,1,0.1,1.3,0.3c0.3,0.2,0.6,0.4,0.8,0.8c0.2,0.4,0.3,0.7,0.3,1.1
				c0,0.3-0.1,0.6-0.2,0.8c-0.1,0.2-0.3,0.4-0.5,0.6s-0.4,0.3-0.7,0.5C526.6,340.7,526.3,340.8,525.9,341z"/>
		</g>
	</g>
</symbol>
<symbol id="Analyze" viewBox="0 0 600 600">
	<polygon class="st6" fill="currentColor" stroke="#FFFFFF" points="539.1,407.9 539.1,540.1 372.2,540.1 372.2,407.8 458.2,353.7 539,407.9 	"/>
	<g>
		<path class="st1" fill="#FFFFFF" d="M512,424.3l2.2-0.8v-7l-2.2-0.8c-0.9-0.3-1.4-0.6-1.7-0.8s-0.5-0.6-0.5-1.1c0-0.4,0.2-0.8,0.5-1.2
			s0.7-0.5,1.1-0.5c0.2,0,0.5,0,0.7,0.1s0.6,0.2,1,0.4l11.2,4.4c0.3,0.1,0.7,0.3,1.2,0.5s0.8,0.4,1.1,0.6s0.5,0.5,0.7,0.8
			s0.3,0.7,0.3,1.2c0,0.5-0.1,0.9-0.3,1.2s-0.4,0.6-0.7,0.8s-0.6,0.4-0.9,0.5s-0.8,0.3-1.3,0.5l-11.1,4.5c-0.8,0.4-1.5,0.5-1.8,0.5
			c-0.4,0-0.8-0.2-1.1-0.5s-0.5-0.7-0.5-1.2c0-0.3,0-0.5,0.1-0.7s0.2-0.4,0.4-0.5s0.4-0.3,0.8-0.4S511.8,424.5,512,424.3z
			 M516.8,417.5v5.1l7.1-2.6L516.8,417.5z"/>
		<path class="st1" fill="#FFFFFF" d="M525.5,435.1l-10.1,6.7h10.2c0.7,0,1.2,0.1,1.5,0.4s0.5,0.7,0.5,1.2c0,0.5-0.2,0.9-0.5,1.2s-0.8,0.4-1.5,0.4
			h-13.5c-1.5,0-2.3-0.6-2.3-1.9c0-0.3,0-0.6,0.1-0.8s0.2-0.5,0.4-0.7s0.4-0.4,0.7-0.6s0.5-0.4,0.8-0.6l10-6.5h-10.1
			c-0.7,0-1.2-0.2-1.5-0.5s-0.5-0.7-0.5-1.2c0-0.5,0.2-0.9,0.5-1.2s0.8-0.4,1.5-0.4H525c0.6,0,1,0.1,1.3,0.2
			c0.4,0.1,0.6,0.4,0.9,0.7s0.3,0.7,0.3,1.1c0,0.3-0.1,0.6-0.2,0.8s-0.2,0.4-0.4,0.6s-0.4,0.3-0.7,0.5S525.8,435,525.5,435.1z"/>
		<path class="st1" fill="#FFFFFF" d="M512,459.5l2.2-0.8v-7l-2.2-0.8c-0.9-0.3-1.4-0.6-1.7-0.8s-0.5-0.6-0.5-1.1c0-0.4,0.2-0.8,0.5-1.2
			s0.7-0.5,1.1-0.5c0.2,0,0.5,0,0.7,0.1s0.6,0.2,1,0.4l11.2,4.4c0.3,0.1,0.7,0.3,1.2,0.5s0.8,0.4,1.1,0.6s0.5,0.5,0.7,0.8
			s0.3,0.7,0.3,1.2c0,0.5-0.1,0.9-0.3,1.2s-0.4,0.6-0.7,0.8s-0.6,0.4-0.9,0.5s-0.8,0.3-1.3,0.5l-11.1,4.5c-0.8,0.4-1.5,0.5-1.8,0.5
			c-0.4,0-0.8-0.2-1.1-0.5s-0.5-0.7-0.5-1.2c0-0.3,0-0.5,0.1-0.7s0.2-0.4,0.4-0.5s0.4-0.3,0.8-0.4S511.8,459.6,512,459.5z
			 M516.8,452.6v5.1l7.1-2.6L516.8,452.6z"/>
		<path class="st1" fill="#FFFFFF" d="M525.4,469.2h-12.5v7.1c0,0.6-0.1,1-0.4,1.3s-0.6,0.5-1,0.5c-0.4,0-0.8-0.1-1-0.4s-0.4-0.7-0.4-1.3v-8.4
			c0-0.8,0.2-1.3,0.5-1.6s0.9-0.5,1.6-0.5h13.2c0.7,0,1.2,0.2,1.6,0.5s0.5,0.7,0.5,1.2c0,0.5-0.2,0.9-0.5,1.3
			S526.2,469.2,525.4,469.2z"/>
		<path class="st1" fill="#FFFFFF" d="M511.9,481.1h5.4l6.5-4.2c0.6-0.4,1-0.6,1.4-0.8s0.6-0.2,0.9-0.2c0.4,0,0.7,0.2,1,0.5s0.4,0.7,0.4,1.1
			c0,0.5-0.1,0.8-0.4,1.1s-0.8,0.6-1.6,1.1l-5.2,3.2l5.2,3.2c0.3,0.2,0.6,0.4,0.8,0.5s0.4,0.3,0.6,0.4s0.3,0.3,0.4,0.5
			s0.2,0.4,0.2,0.7c0,0.4-0.1,0.8-0.4,1.1s-0.6,0.4-1,0.4c-0.3,0-0.6-0.1-0.9-0.2s-0.7-0.4-1.3-0.8l-6.6-4.3h-5.4
			c-0.7,0-1.2-0.2-1.6-0.5s-0.5-0.7-0.5-1.3c0-0.5,0.2-0.9,0.5-1.3S511.2,481.1,511.9,481.1z"/>
		<path class="st1" fill="#FFFFFF" d="M514.1,491.8l10.6,8.8V493c0-0.5,0.1-0.9,0.4-1.2s0.5-0.4,0.9-0.4c0.4,0,0.7,0.1,1,0.4s0.4,0.7,0.4,1.2v9.8
			c0,1.3-0.6,1.9-1.8,1.9c-0.6,0-1-0.1-1.3-0.3s-0.9-0.6-1.6-1.3l-9.8-8.2v9.1c0,0.5-0.1,0.9-0.3,1.2s-0.5,0.4-0.9,0.4
			c-0.4,0-0.7-0.1-1-0.4s-0.4-0.7-0.4-1.2v-11.2c0-0.8,0.2-1.3,0.5-1.7s0.8-0.6,1.4-0.6c0.2,0,0.4,0,0.5,0.1s0.3,0.1,0.5,0.3
			s0.3,0.3,0.6,0.4S513.9,491.7,514.1,491.8z"/>
		<path class="st1" fill="#FFFFFF" d="M524.6,519.1v-7.8h-4.2v7.2c0,0.5-0.1,0.9-0.4,1.2s-0.6,0.4-0.9,0.4s-0.7-0.1-1-0.4s-0.4-0.7-0.4-1.2v-7.2
			h-4.9v8.1c0,0.5-0.1,1-0.4,1.2s-0.6,0.4-1,0.4c-0.4,0-0.7-0.1-1-0.4s-0.4-0.7-0.4-1.2v-9.5c0-0.8,0.2-1.3,0.5-1.6s0.9-0.5,1.6-0.5
			h12.9c0.5,0,0.9,0.1,1.2,0.2s0.5,0.4,0.7,0.7s0.2,0.7,0.2,1.2v9.2c0,0.6-0.1,1-0.4,1.2s-0.6,0.4-1,0.4c-0.4,0-0.7-0.1-1-0.4
			S524.6,519.6,524.6,519.1z"/>
	</g>
</symbol>
</svg>
